M48
;Layer_Color=9474304
;FILE_FORMAT=2:5
INCH,LZ
;TYPE=PLATED
T1F00S00C0.02800
T2F00S00C0.03000
T3F00S00C0.03543
T4F00S00C0.09843
T5F00S00C0.12598
%
T01
X01445Y00795
X01525Y00845
X01595Y01285
X01665Y01475
X017Y01755
X0121Y02075
X01254Y02225
X0287Y0123
X02295Y0244
T02
X032Y00475
Y00575
Y00675
X013
Y00575
Y00475
Y00775
Y00875
Y00975
Y01175
Y01275
Y01375
Y01475
Y01575
Y01675
Y01775
Y01875
X032Y01835
Y01735
Y01635
Y01535
Y01435
Y01335
Y01175
Y01075
Y00975
Y00875
Y00775
Y01935
Y02035
Y02135
Y02235
T03
X02655Y006
Y007
X03395Y0071
Y0061
X01655Y006
Y007
X0110284Y0069169
X0100284
Y0059169
X0110284
Y0049169
X0100284
Y0039169
X0110284
Y0079169
Y0089169
Y0099169
Y0109169
Y0119169
Y0129169
Y0139169
Y0149169
Y0159169
Y0169169
Y0179169
Y0189169
Y0199169
Y0209169
Y0219169
Y0229169
X0100284
Y0219169
Y0209169
Y0199169
Y0189169
Y0179169
Y0169169
Y0159169
Y0149169
Y0139169
Y0129169
Y0119169
Y0109169
Y0099169
Y0089169
Y0079169
X01655Y0105
Y0115
X01525Y01755
Y01855
Y01955
Y02055
Y02155
Y02255
X01825
Y02155
Y02055
Y01955
Y01855
Y01755
X00675Y02295
X01995Y017
X02095
X02195
X02295
X02575Y0176
Y0186
Y0196
Y0206
Y0216
Y0226
X02875
Y0216
Y0206
Y0196
Y0186
Y0176
X0339Y01745
Y01645
Y01545
X03395Y01325
Y01225
Y01125
Y01025
Y0081
X02655Y0104992
Y0114992
X0339Y01845
Y01945
Y02045
Y02145
Y02245
Y02345
Y02445
Y02545
X02875Y0246
Y0236
X02575
Y0246
X01825Y02455
Y02355
X01525
Y02455
X00675Y02495
Y02395
T04
X0214276Y00112
X0235776
X0254276
X0195776
X0174276
X0155776
T05
X026Y00375
X03505Y002
X015Y00375
X0106284Y0020169
X0013784Y0019669
X032Y02375
X013Y02425
X0103784Y0248169
X0012784
M30
