M48
;Layer_Color=9474304
;FILE_FORMAT=2:5
INCH,TZ
;TYPE=PLATED
T1F00S00C0.02800
T2F00S00C0.03000
T3F00S00C0.03543
T4F00S00C0.09843
T5F00S00C0.12598
%
T01
X144500Y79500
X152500Y84500
X159500Y128500
X166500Y147500
X170000Y175500
X121000Y207500
X125400Y222500
X287000Y123000
X229500Y244000
T02
X320000Y47500
Y57500
Y67500
X130000
Y57500
Y47500
Y77500
Y87500
Y97500
Y117500
Y127500
Y137500
Y147500
Y157500
Y167500
Y177500
Y187500
X320000Y183500
Y173500
Y163500
Y153500
Y143500
Y133500
Y117500
Y107500
Y97500
Y87500
Y77500
Y193500
Y203500
Y213500
Y223500
T03
X265500Y60000
Y70000
X339500Y71000
Y61000
X165500Y60000
Y70000
X110284Y69169
X100284
Y59169
X110284
Y49169
X100284
Y39169
X110284
Y79169
Y89169
Y99169
Y109169
Y119169
Y129169
Y139169
Y149169
Y159169
Y169169
Y179169
Y189169
Y199169
Y209169
Y219169
Y229169
X100284
Y219169
Y209169
Y199169
Y189169
Y179169
Y169169
Y159169
Y149169
Y139169
Y129169
Y119169
Y109169
Y99169
Y89169
Y79169
X165500Y105000
Y115000
X152500Y175500
Y185500
Y195500
Y205500
Y215500
Y225500
X182500
Y215500
Y205500
Y195500
Y185500
Y175500
X67500Y229500
X199500Y170000
X209500
X219500
X229500
X257500Y176000
Y186000
Y196000
Y206000
Y216000
Y226000
X287500
Y216000
Y206000
Y196000
Y186000
Y176000
X339000Y174500
Y164500
Y154500
X339500Y132500
Y122500
Y112500
Y102500
Y81000
X265500Y104992
Y114992
X339000Y184500
Y194500
Y204500
Y214500
Y224500
Y234500
Y244500
Y254500
X287500Y246000
Y236000
X257500
Y246000
X182500Y245500
Y235500
X152500
Y245500
X67500Y249500
Y239500
T04
X214276Y11200
X235776
X254276
X195776
X174276
X155776
T05
X260000Y37500
X350500Y20000
X150000Y37500
X106284Y20169
X13784Y19669
X320000Y237500
X130000Y242500
X103784Y248169
X12784
M30
