G04*
G04 #@! TF.GenerationSoftware,Altium Limited,Altium Designer,22.4.2 (48)*
G04*
G04 Layer_Color=32768*
%FSLAX25Y25*%
%MOIN*%
G70*
G04*
G04 #@! TF.SameCoordinates,BB4B1E32-F115-428D-8FF9-27E3AA0A464A*
G04*
G04*
G04 #@! TF.FilePolarity,Positive*
G04*
G01*
G75*
%ADD40C,0.00394*%
%ADD41C,0.00197*%
D40*
X165532Y210500D02*
X169469D01*
X167500Y208532D02*
Y212469D01*
X242500Y148531D02*
Y152469D01*
X240531Y150500D02*
X244468D01*
X272500Y209032D02*
Y212969D01*
X270532Y211000D02*
X274469D01*
X185531Y150500D02*
X189469D01*
X187500Y148531D02*
Y152469D01*
X240531Y129000D02*
X244468D01*
X242500Y127032D02*
Y130968D01*
X185531Y128500D02*
X189469D01*
X187500Y126532D02*
Y130468D01*
D41*
X235020Y154240D02*
X249980D01*
X235020Y146760D02*
X249980D01*
X235020D02*
Y154240D01*
X249980Y146760D02*
Y154240D01*
X194980Y146760D02*
Y154240D01*
X180020Y146760D02*
Y154240D01*
Y146760D02*
X194980D01*
X180020Y154240D02*
X194980D01*
X235020Y125260D02*
Y132740D01*
X249980Y125260D02*
Y132740D01*
X235020D02*
X249980D01*
X235020Y125260D02*
X249980D01*
X180020Y124760D02*
Y132240D01*
X194980Y124760D02*
Y132240D01*
X180020D02*
X194980D01*
X180020Y124760D02*
X194980D01*
M02*
