G04*
G04 #@! TF.GenerationSoftware,Altium Limited,Altium Designer,22.4.2 (48)*
G04*
G04 Layer_Physical_Order=1*
G04 Layer_Color=255*
%FSLAX25Y25*%
%MOIN*%
G70*
G04*
G04 #@! TF.SameCoordinates,BB4B1E32-F115-428D-8FF9-27E3AA0A464A*
G04*
G04*
G04 #@! TF.FilePolarity,Positive*
G04*
G01*
G75*
%ADD13C,0.01000*%
%ADD16R,0.03543X0.06102*%
%ADD27C,0.05906*%
%ADD28C,0.03937*%
%ADD29C,0.11811*%
%ADD30C,0.05906*%
%ADD31R,0.05906X0.05906*%
%ADD32R,0.05906X0.05906*%
%ADD33R,0.09843X0.09843*%
%ADD34C,0.12598*%
%ADD35R,0.15748X0.15748*%
%ADD36R,0.06000X0.06000*%
%ADD37C,0.06000*%
%ADD38C,0.05000*%
G36*
X364500Y0D02*
X0D01*
Y262500D01*
X364500D01*
Y0D01*
D02*
G37*
%LPC*%
G36*
X161100Y260887D02*
X161100Y260887D01*
X128015D01*
X128015Y260887D01*
X126983Y260751D01*
X126022Y260353D01*
X125196Y259719D01*
X125196Y259719D01*
X111204Y245727D01*
X110788Y246005D01*
X110803Y246040D01*
X111083Y247450D01*
Y248888D01*
X110803Y250298D01*
X110252Y251626D01*
X109454Y252822D01*
X108437Y253839D01*
X107241Y254638D01*
X105913Y255188D01*
X104503Y255468D01*
X103065D01*
X101655Y255188D01*
X100327Y254638D01*
X99131Y253839D01*
X98114Y252822D01*
X97316Y251626D01*
X96765Y250298D01*
X96485Y248888D01*
Y247450D01*
X96765Y246040D01*
X97316Y244711D01*
X98114Y243516D01*
X99131Y242499D01*
X100327Y241701D01*
X101655Y241150D01*
X103065Y240870D01*
X104503D01*
X105913Y241150D01*
X105948Y241165D01*
X106226Y240749D01*
X98598Y233122D01*
X96331D01*
Y230855D01*
X88681Y223204D01*
X88047Y222378D01*
X87649Y221417D01*
X87513Y220385D01*
X87513Y220385D01*
Y157953D01*
X87513Y157953D01*
X87649Y156921D01*
X88047Y155960D01*
X88681Y155134D01*
X97465Y146350D01*
X97672Y146191D01*
X97857Y146006D01*
X98083Y145875D01*
X98291Y145716D01*
X98532Y145616D01*
X98758Y145486D01*
X99011Y145418D01*
X99252Y145318D01*
X99511Y145284D01*
X99764Y145216D01*
X100025D01*
X100284Y145182D01*
X100543Y145216D01*
X100804D01*
X101057Y145284D01*
X101316Y145318D01*
X101557Y145418D01*
X101810Y145486D01*
X102036Y145616D01*
X102277Y145716D01*
X102485Y145875D01*
X102711Y146006D01*
X102896Y146191D01*
X103103Y146350D01*
X103262Y146557D01*
X103447Y146742D01*
X103578Y146968D01*
X103737Y147176D01*
X103837Y147417D01*
X103967Y147643D01*
X104035Y147896D01*
X104135Y148137D01*
X104169Y148396D01*
X104237Y148649D01*
Y148910D01*
X104271Y149169D01*
X104237Y149428D01*
Y149689D01*
X104169Y149942D01*
X104135Y150201D01*
X104035Y150442D01*
X103967Y150695D01*
X103837Y150921D01*
X103737Y151162D01*
X103578Y151370D01*
X103447Y151596D01*
X103262Y151781D01*
X103103Y151988D01*
X100337Y154754D01*
X100528Y155216D01*
X100804D01*
X101810Y155486D01*
X102711Y156006D01*
X103447Y156742D01*
X103967Y157643D01*
X104237Y158649D01*
Y159689D01*
X103967Y160695D01*
X103447Y161596D01*
X102711Y162332D01*
X101810Y162852D01*
X100804Y163122D01*
X99764D01*
X98758Y162852D01*
X97857Y162332D01*
X97121Y161596D01*
X96601Y160695D01*
X96331Y159689D01*
Y159413D01*
X95869Y159222D01*
X95487Y159604D01*
Y218734D01*
X95869Y219116D01*
X96331Y218925D01*
Y218649D01*
X96601Y217643D01*
X97121Y216742D01*
X97857Y216006D01*
X98758Y215486D01*
X99764Y215216D01*
X100804D01*
X101810Y215486D01*
X102711Y216006D01*
X103447Y216742D01*
X103967Y217643D01*
X104237Y218649D01*
Y219689D01*
X103967Y220695D01*
X103447Y221596D01*
X102711Y222332D01*
X101810Y222852D01*
X100804Y223122D01*
X100528D01*
X100337Y223584D01*
X101970Y225216D01*
X104237D01*
Y227484D01*
X105797Y229044D01*
X106297Y228837D01*
Y219169D01*
X106331Y218910D01*
Y218649D01*
X106399Y218396D01*
X106433Y218137D01*
X106533Y217896D01*
X106601Y217643D01*
X106731Y217417D01*
X106831Y217176D01*
X106990Y216968D01*
X107121Y216742D01*
X107306Y216557D01*
X107465Y216350D01*
X107672Y216191D01*
X107857Y216006D01*
X108083Y215875D01*
X108291Y215716D01*
X108532Y215616D01*
X108758Y215486D01*
X109011Y215418D01*
X109252Y215318D01*
X109511Y215284D01*
X109764Y215216D01*
X110025D01*
X110284Y215182D01*
X110543Y215216D01*
X110804D01*
X111057Y215284D01*
X111316Y215318D01*
X111557Y215418D01*
X111810Y215486D01*
X112036Y215616D01*
X112277Y215716D01*
X112485Y215875D01*
X112711Y216006D01*
X112896Y216191D01*
X113103Y216350D01*
X113262Y216557D01*
X113447Y216742D01*
X113578Y216968D01*
X113737Y217176D01*
X113837Y217417D01*
X113967Y217643D01*
X114035Y217896D01*
X114135Y218137D01*
X114169Y218396D01*
X114237Y218649D01*
Y218910D01*
X114271Y219169D01*
Y225182D01*
X117080D01*
X122581Y219681D01*
X122581Y219681D01*
X123407Y219047D01*
X124368Y218649D01*
X125400Y218513D01*
X126432Y218649D01*
X127393Y219047D01*
X128219Y219681D01*
X128853Y220507D01*
X129251Y221468D01*
X129360Y222296D01*
X129866Y222498D01*
X136013Y216350D01*
Y159177D01*
X134462Y157626D01*
X134000Y157817D01*
Y158027D01*
X133727Y159044D01*
X133201Y159956D01*
X132456Y160701D01*
X131544Y161227D01*
X130527Y161500D01*
X129473D01*
X128456Y161227D01*
X127544Y160701D01*
X126799Y159956D01*
X126273Y159044D01*
X126000Y158027D01*
Y156973D01*
X126273Y155956D01*
X126799Y155044D01*
X127544Y154299D01*
X128456Y153773D01*
X129473Y153500D01*
X129683D01*
X129874Y153038D01*
X127181Y150345D01*
X127158Y150315D01*
X126799Y149956D01*
X126273Y149044D01*
X126000Y148027D01*
Y146973D01*
X126273Y145956D01*
X126799Y145044D01*
X127544Y144299D01*
X128456Y143773D01*
X129473Y143500D01*
X130527D01*
X131544Y143773D01*
X132456Y144299D01*
X133201Y145044D01*
X133261Y145148D01*
X142819Y154706D01*
X142819Y154706D01*
X143453Y155532D01*
X143471Y155575D01*
X143971Y155476D01*
Y94634D01*
X130772Y81434D01*
X130527Y81500D01*
X129473D01*
X128456Y81227D01*
X127544Y80701D01*
X126799Y79956D01*
X126273Y79044D01*
X126000Y78027D01*
Y76973D01*
X126273Y75956D01*
X126799Y75044D01*
X127314Y74529D01*
X127107Y74029D01*
X123600D01*
X123015Y73913D01*
X122519Y73581D01*
X115166Y66229D01*
X108133D01*
X107329Y67033D01*
Y75880D01*
X107791Y76072D01*
X107857Y76006D01*
X108758Y75486D01*
X109764Y75216D01*
X110804D01*
X111810Y75486D01*
X112711Y76006D01*
X113447Y76742D01*
X113967Y77643D01*
X114237Y78649D01*
Y79689D01*
X113967Y80695D01*
X113447Y81596D01*
X112711Y82332D01*
X111810Y82852D01*
X110804Y83122D01*
X109764D01*
X108758Y82852D01*
X107857Y82332D01*
X107791Y82266D01*
X107329Y82458D01*
Y95880D01*
X107791Y96072D01*
X107857Y96006D01*
X108758Y95486D01*
X109764Y95216D01*
X110804D01*
X111810Y95486D01*
X112711Y96006D01*
X113447Y96742D01*
X113967Y97643D01*
X114237Y98649D01*
Y99689D01*
X113967Y100695D01*
X113447Y101596D01*
X112711Y102332D01*
X111810Y102852D01*
X110804Y103122D01*
X109764D01*
X108758Y102852D01*
X107857Y102332D01*
X107791Y102266D01*
X107329Y102458D01*
Y105880D01*
X107791Y106072D01*
X107857Y106006D01*
X108758Y105486D01*
X109764Y105216D01*
X110804D01*
X111810Y105486D01*
X112711Y106006D01*
X113447Y106742D01*
X113967Y107643D01*
X114237Y108649D01*
Y109689D01*
X113967Y110695D01*
X113447Y111596D01*
X112711Y112332D01*
X111810Y112852D01*
X110804Y113122D01*
X109764D01*
X108758Y112852D01*
X107857Y112332D01*
X107791Y112266D01*
X107329Y112458D01*
Y114051D01*
X108762Y115484D01*
X109764Y115216D01*
X110804D01*
X111810Y115486D01*
X112711Y116006D01*
X113447Y116742D01*
X113967Y117643D01*
X114237Y118649D01*
Y119689D01*
X113967Y120695D01*
X113447Y121596D01*
X113341Y121702D01*
X113506Y122244D01*
X113801Y122303D01*
X114298Y122635D01*
X118581Y126919D01*
X118913Y127415D01*
X119029Y128000D01*
Y203366D01*
X119848Y204185D01*
X120539Y204000D01*
X121461D01*
X122351Y204239D01*
X123149Y204699D01*
X123801Y205351D01*
X124261Y206149D01*
X124500Y207039D01*
Y207961D01*
X124261Y208851D01*
X123801Y209649D01*
X123149Y210301D01*
X122351Y210761D01*
X121461Y211000D01*
X120539D01*
X119649Y210761D01*
X118851Y210301D01*
X118199Y209649D01*
X117738Y208851D01*
X117500Y207961D01*
Y207039D01*
X117685Y206348D01*
X116419Y205081D01*
X116087Y204585D01*
X115971Y204000D01*
Y128633D01*
X113950Y126612D01*
X113549Y126919D01*
X113967Y127643D01*
X114237Y128649D01*
Y129689D01*
X113967Y130695D01*
X113447Y131596D01*
X112711Y132332D01*
X111810Y132852D01*
X110804Y133122D01*
X109764D01*
X108758Y132852D01*
X107857Y132332D01*
X107121Y131596D01*
X106601Y130695D01*
X106331Y129689D01*
Y128649D01*
X106601Y127643D01*
X107121Y126742D01*
X107857Y126006D01*
X108308Y125745D01*
X108174Y125245D01*
X104831D01*
X104246Y125129D01*
X103750Y124798D01*
X101806Y122854D01*
X100804Y123122D01*
X99764D01*
X98758Y122852D01*
X97857Y122332D01*
X97121Y121596D01*
X96601Y120695D01*
X96331Y119689D01*
Y118649D01*
X96601Y117643D01*
X97121Y116742D01*
X97857Y116006D01*
X98758Y115486D01*
X99764Y115216D01*
X100804D01*
X101810Y115486D01*
X102711Y116006D01*
X103447Y116742D01*
X103967Y117643D01*
X104237Y118649D01*
Y119689D01*
X103969Y120691D01*
X105465Y122187D01*
X107058D01*
X107250Y121725D01*
X107121Y121596D01*
X106601Y120695D01*
X106331Y119689D01*
Y118649D01*
X106599Y117647D01*
X104719Y115766D01*
X104387Y115270D01*
X104271Y114685D01*
Y101170D01*
X103771Y101035D01*
X103447Y101596D01*
X102711Y102332D01*
X101810Y102852D01*
X100804Y103122D01*
X99764D01*
X98758Y102852D01*
X97857Y102332D01*
X97121Y101596D01*
X96601Y100695D01*
X96331Y99689D01*
Y98649D01*
X96601Y97643D01*
X97121Y96742D01*
X97857Y96006D01*
X98758Y95486D01*
X99764Y95216D01*
X100804D01*
X101810Y95486D01*
X102711Y96006D01*
X103447Y96742D01*
X103771Y97303D01*
X104271Y97168D01*
Y91170D01*
X103771Y91035D01*
X103447Y91596D01*
X102711Y92332D01*
X101810Y92852D01*
X100804Y93122D01*
X99764D01*
X98758Y92852D01*
X97857Y92332D01*
X97121Y91596D01*
X96601Y90695D01*
X96331Y89689D01*
Y88649D01*
X96601Y87643D01*
X97121Y86742D01*
X97857Y86006D01*
X98758Y85486D01*
X99764Y85216D01*
X100804D01*
X101810Y85486D01*
X102711Y86006D01*
X103447Y86742D01*
X103771Y87303D01*
X104271Y87169D01*
Y81169D01*
X103771Y81036D01*
X103447Y81596D01*
X102711Y82332D01*
X101810Y82852D01*
X100804Y83122D01*
X99764D01*
X98758Y82852D01*
X97857Y82332D01*
X97121Y81596D01*
X96601Y80695D01*
X96331Y79689D01*
Y78649D01*
X96601Y77643D01*
X97121Y76742D01*
X97857Y76006D01*
X98758Y75486D01*
X99764Y75216D01*
X100804D01*
X101810Y75486D01*
X102711Y76006D01*
X103447Y76742D01*
X103771Y77302D01*
X104271Y77169D01*
Y71170D01*
X103771Y71035D01*
X103447Y71596D01*
X102711Y72332D01*
X101810Y72852D01*
X100804Y73122D01*
X99764D01*
X98758Y72852D01*
X97857Y72332D01*
X97121Y71596D01*
X96601Y70695D01*
X96331Y69689D01*
Y68649D01*
X96601Y67643D01*
X97121Y66742D01*
X97857Y66006D01*
X98758Y65486D01*
X99764Y65216D01*
X100804D01*
X101810Y65486D01*
X102711Y66006D01*
X103447Y66742D01*
X103771Y67303D01*
X104271Y67168D01*
Y66400D01*
X104387Y65815D01*
X104719Y65319D01*
X106419Y63619D01*
X106915Y63287D01*
X107500Y63171D01*
X108309D01*
X108443Y62671D01*
X107857Y62332D01*
X107121Y61596D01*
X106601Y60695D01*
X106331Y59689D01*
Y58649D01*
X106601Y57643D01*
X107121Y56742D01*
X107857Y56006D01*
X108758Y55486D01*
X109764Y55216D01*
X110804D01*
X111810Y55486D01*
X112711Y56006D01*
X113447Y56742D01*
X113967Y57643D01*
X114237Y58649D01*
Y59689D01*
X113967Y60695D01*
X113447Y61596D01*
X112711Y62332D01*
X112125Y62671D01*
X112259Y63171D01*
X115800D01*
X116385Y63287D01*
X116881Y63619D01*
X124233Y70971D01*
X127107D01*
X127314Y70471D01*
X126799Y69956D01*
X126273Y69044D01*
X126000Y68027D01*
Y66973D01*
X126273Y65956D01*
X126799Y65044D01*
X127544Y64299D01*
X127673Y64225D01*
X127677Y64176D01*
X127562Y63711D01*
X127126Y63624D01*
X126630Y63293D01*
X114357Y51020D01*
X113732Y51102D01*
X113447Y51596D01*
X112711Y52332D01*
X111810Y52852D01*
X110804Y53122D01*
X109764D01*
X108758Y52852D01*
X107857Y52332D01*
X107121Y51596D01*
X106601Y50695D01*
X106331Y49689D01*
Y48649D01*
X106601Y47643D01*
X107121Y46742D01*
X107857Y46006D01*
X108758Y45486D01*
X109764Y45216D01*
X110804D01*
X111810Y45486D01*
X112711Y46006D01*
X113447Y46742D01*
X113965Y47640D01*
X114669D01*
X115254Y47756D01*
X115750Y48088D01*
X125500Y57837D01*
X126000Y57630D01*
Y56973D01*
X126273Y55956D01*
X126799Y55044D01*
X127544Y54299D01*
X128456Y53773D01*
X129473Y53500D01*
X130527D01*
X131544Y53773D01*
X132456Y54299D01*
X133201Y55044D01*
X133727Y55956D01*
X134000Y56973D01*
Y58027D01*
X133727Y59044D01*
X133201Y59956D01*
X132937Y60220D01*
X133128Y60682D01*
X136211D01*
X136797Y60799D01*
X137293Y61130D01*
X145581Y69419D01*
X145913Y69915D01*
X146029Y70500D01*
Y76341D01*
X146649Y76699D01*
X147301Y77351D01*
X147761Y78149D01*
X148000Y79039D01*
Y79961D01*
X147761Y80851D01*
X147301Y81649D01*
X146649Y82301D01*
X145851Y82762D01*
X144961Y83000D01*
X144816D01*
X144625Y83462D01*
X149081Y87919D01*
X149413Y88415D01*
X149529Y89000D01*
Y160866D01*
X172634Y183971D01*
X178819D01*
X179337Y183073D01*
X180073Y182337D01*
X180606Y182029D01*
X180472Y181529D01*
X174500D01*
X173915Y181413D01*
X173419Y181081D01*
X171152Y178815D01*
X170461Y179000D01*
X169539D01*
X168649Y178761D01*
X167851Y178301D01*
X167199Y177649D01*
X166738Y176851D01*
X166500Y175961D01*
Y175039D01*
X166738Y174149D01*
X167199Y173351D01*
X167851Y172699D01*
X168649Y172239D01*
X169539Y172000D01*
X170461D01*
X171351Y172239D01*
X172149Y172699D01*
X172801Y173351D01*
X173261Y174149D01*
X173500Y175039D01*
Y175961D01*
X173315Y176652D01*
X175134Y178471D01*
X194867D01*
X197971Y175366D01*
Y173953D01*
X195547D01*
Y166047D01*
X203453D01*
Y173953D01*
X201029D01*
Y176000D01*
X200913Y176585D01*
X200581Y177081D01*
X196581Y181081D01*
X196085Y181413D01*
X195500Y181529D01*
X184528D01*
X184394Y182029D01*
X184927Y182337D01*
X185663Y183073D01*
X186183Y183974D01*
X186453Y184980D01*
Y186020D01*
X186183Y187026D01*
X185663Y187927D01*
X185629Y187961D01*
X185820Y188423D01*
X194914D01*
X207971Y175366D01*
Y173681D01*
X207073Y173163D01*
X206337Y172427D01*
X205817Y171526D01*
X205547Y170520D01*
Y169480D01*
X205817Y168474D01*
X206337Y167573D01*
X207073Y166837D01*
X207974Y166317D01*
X208980Y166047D01*
X210020D01*
X211026Y166317D01*
X211927Y166837D01*
X212663Y167573D01*
X213183Y168474D01*
X213453Y169480D01*
Y170520D01*
X213183Y171526D01*
X212663Y172427D01*
X211927Y173163D01*
X211029Y173681D01*
Y176000D01*
X210913Y176585D01*
X210581Y177081D01*
X196629Y191034D01*
X196133Y191366D01*
X195547Y191482D01*
X184446D01*
X184312Y191982D01*
X184927Y192337D01*
X185663Y193073D01*
X186183Y193974D01*
X186453Y194980D01*
Y196020D01*
X186183Y197026D01*
X185663Y197927D01*
X185629Y197961D01*
X185820Y198423D01*
X195414D01*
X217971Y175866D01*
Y173681D01*
X217073Y173163D01*
X216337Y172427D01*
X215817Y171526D01*
X215547Y170520D01*
Y169480D01*
X215817Y168474D01*
X216337Y167573D01*
X217073Y166837D01*
X217974Y166317D01*
X218980Y166047D01*
X220020D01*
X221026Y166317D01*
X221927Y166837D01*
X222663Y167573D01*
X223183Y168474D01*
X223453Y169480D01*
Y170520D01*
X223183Y171526D01*
X222663Y172427D01*
X221927Y173163D01*
X221029Y173681D01*
Y176500D01*
X220913Y177085D01*
X220581Y177581D01*
X197129Y201034D01*
X196633Y201366D01*
X196047Y201482D01*
X184446D01*
X184312Y201982D01*
X184927Y202337D01*
X185663Y203073D01*
X186183Y203974D01*
X186453Y204980D01*
Y206020D01*
X186183Y207026D01*
X185663Y207927D01*
X185629Y207961D01*
X185820Y208423D01*
X194914D01*
X227971Y175366D01*
Y173681D01*
X227073Y173163D01*
X226337Y172427D01*
X225817Y171526D01*
X225547Y170520D01*
Y169480D01*
X225817Y168474D01*
X226337Y167573D01*
X227073Y166837D01*
X227974Y166317D01*
X228980Y166047D01*
X230020D01*
X231026Y166317D01*
X231927Y166837D01*
X232663Y167573D01*
X233183Y168474D01*
X233453Y169480D01*
Y170520D01*
X233183Y171526D01*
X232663Y172427D01*
X231927Y173163D01*
X231029Y173681D01*
Y176000D01*
X230913Y176585D01*
X230581Y177081D01*
X196629Y211034D01*
X196133Y211366D01*
X195547Y211482D01*
X184446D01*
X184312Y211982D01*
X184927Y212337D01*
X185663Y213073D01*
X186183Y213974D01*
X186453Y214980D01*
Y216020D01*
X186183Y217026D01*
X185663Y217927D01*
X185629Y217961D01*
X185820Y218423D01*
X191414D01*
X235754Y174083D01*
Y154551D01*
X234512D01*
Y152029D01*
X195488D01*
Y154551D01*
X189945D01*
Y146449D01*
X195488D01*
Y148971D01*
X234512D01*
Y146449D01*
X240055D01*
Y154551D01*
X238813D01*
Y174716D01*
X238696Y175302D01*
X238365Y175798D01*
X193129Y221034D01*
X192632Y221366D01*
X192047Y221482D01*
X171414D01*
X170828Y221366D01*
X170332Y221034D01*
X166328Y217029D01*
X156181D01*
X155663Y217927D01*
X154927Y218663D01*
X154026Y219183D01*
X153020Y219453D01*
X151980D01*
X150974Y219183D01*
X150073Y218663D01*
X149337Y217927D01*
X148817Y217026D01*
X148547Y216020D01*
Y214980D01*
X148817Y213974D01*
X149337Y213073D01*
X150073Y212337D01*
X150974Y211817D01*
X151980Y211547D01*
X153020D01*
X154026Y211817D01*
X154927Y212337D01*
X155663Y213073D01*
X156181Y213971D01*
X166961D01*
X167546Y214087D01*
X168042Y214419D01*
X172047Y218423D01*
X179180D01*
X179371Y217961D01*
X179337Y217927D01*
X178817Y217026D01*
X178547Y216020D01*
Y214980D01*
X178817Y213974D01*
X179337Y213073D01*
X180073Y212337D01*
X180688Y211982D01*
X180554Y211482D01*
X156953D01*
X156368Y211366D01*
X155871Y211034D01*
X154022Y209185D01*
X153020Y209453D01*
X151980D01*
X150974Y209183D01*
X150073Y208663D01*
X149337Y207927D01*
X148817Y207026D01*
X148547Y206020D01*
Y204980D01*
X148817Y203974D01*
X149337Y203073D01*
X150073Y202337D01*
X150974Y201817D01*
X151980Y201547D01*
X153020D01*
X154026Y201817D01*
X154927Y202337D01*
X155663Y203073D01*
X156183Y203974D01*
X156453Y204980D01*
Y206020D01*
X156184Y207022D01*
X157586Y208423D01*
X179180D01*
X179371Y207961D01*
X179337Y207927D01*
X178817Y207026D01*
X178547Y206020D01*
Y204980D01*
X178817Y203974D01*
X179337Y203073D01*
X180073Y202337D01*
X180688Y201982D01*
X180554Y201482D01*
X156953D01*
X156368Y201366D01*
X155871Y201034D01*
X154022Y199185D01*
X153020Y199453D01*
X151980D01*
X150974Y199183D01*
X150073Y198663D01*
X149337Y197927D01*
X148817Y197026D01*
X148547Y196020D01*
Y194980D01*
X148817Y193974D01*
X149337Y193073D01*
X150073Y192337D01*
X150974Y191817D01*
X151980Y191547D01*
X153020D01*
X154026Y191817D01*
X154927Y192337D01*
X155663Y193073D01*
X156183Y193974D01*
X156453Y194980D01*
Y196020D01*
X156184Y197022D01*
X157586Y198423D01*
X179180D01*
X179371Y197961D01*
X179337Y197927D01*
X178817Y197026D01*
X178547Y196020D01*
Y194980D01*
X178817Y193974D01*
X179337Y193073D01*
X180073Y192337D01*
X180688Y191982D01*
X180554Y191482D01*
X156953D01*
X156368Y191366D01*
X155871Y191034D01*
X154022Y189184D01*
X153020Y189453D01*
X151980D01*
X150974Y189183D01*
X150073Y188663D01*
X149337Y187927D01*
X148817Y187026D01*
X148547Y186020D01*
Y184980D01*
X148817Y183974D01*
X149337Y183073D01*
X150073Y182337D01*
X150974Y181817D01*
X151980Y181547D01*
X153020D01*
X154026Y181817D01*
X154927Y182337D01*
X155663Y183073D01*
X156183Y183974D01*
X156453Y184980D01*
Y186020D01*
X156184Y187022D01*
X157586Y188423D01*
X179180D01*
X179371Y187961D01*
X179337Y187927D01*
X178819Y187029D01*
X172000D01*
X171415Y186913D01*
X170919Y186581D01*
X147491Y163154D01*
X147029Y163346D01*
Y237866D01*
X150710Y241547D01*
X156453D01*
Y249453D01*
X148547D01*
Y243710D01*
X144419Y239581D01*
X144087Y239085D01*
X143971Y238500D01*
Y220051D01*
X143471Y219952D01*
X143453Y219995D01*
X142819Y220821D01*
X142819Y220821D01*
X128839Y234801D01*
X129075Y235242D01*
X129281Y235201D01*
X130719D01*
X132129Y235481D01*
X133458Y236032D01*
X134653Y236830D01*
X135670Y237847D01*
X136469Y239042D01*
X137019Y240371D01*
X137299Y241781D01*
Y243219D01*
X137019Y244629D01*
X136469Y245957D01*
X135670Y247153D01*
X134653Y248170D01*
X133458Y248969D01*
X132129Y249519D01*
X130719Y249799D01*
X129281D01*
X127871Y249519D01*
X126542Y248969D01*
X126200Y248740D01*
X125881Y249128D01*
X129666Y252913D01*
X159449D01*
X172413Y239949D01*
X172222Y239487D01*
X152500D01*
X152241Y239453D01*
X151980D01*
X151727Y239385D01*
X151468Y239351D01*
X151227Y239251D01*
X150974Y239183D01*
X150748Y239053D01*
X150507Y238953D01*
X150299Y238794D01*
X150073Y238663D01*
X149888Y238478D01*
X149681Y238319D01*
X149522Y238112D01*
X149337Y237927D01*
X149206Y237701D01*
X149047Y237493D01*
X148947Y237252D01*
X148817Y237026D01*
X148749Y236773D01*
X148649Y236532D01*
X148615Y236273D01*
X148547Y236020D01*
Y235759D01*
X148513Y235500D01*
X148547Y235241D01*
Y234980D01*
X148615Y234727D01*
X148649Y234468D01*
X148749Y234227D01*
X148817Y233974D01*
X148947Y233748D01*
X149047Y233507D01*
X149206Y233299D01*
X149337Y233073D01*
X149522Y232888D01*
X149681Y232681D01*
X149888Y232522D01*
X150073Y232337D01*
X150299Y232206D01*
X150507Y232047D01*
X150748Y231947D01*
X150974Y231817D01*
X151227Y231749D01*
X151468Y231649D01*
X151727Y231615D01*
X151980Y231547D01*
X152241D01*
X152500Y231513D01*
X161188D01*
X161345Y231103D01*
X161350Y231013D01*
X157734Y227396D01*
X155969D01*
X155663Y227927D01*
X154927Y228663D01*
X154026Y229183D01*
X153020Y229453D01*
X151980D01*
X150974Y229183D01*
X150073Y228663D01*
X149337Y227927D01*
X148817Y227026D01*
X148547Y226020D01*
Y224980D01*
X148817Y223974D01*
X149337Y223073D01*
X150073Y222337D01*
X150974Y221817D01*
X151980Y221547D01*
X153020D01*
X154026Y221817D01*
X154927Y222337D01*
X155663Y223073D01*
X156183Y223974D01*
X156281Y224338D01*
X158367D01*
X158952Y224454D01*
X159448Y224785D01*
X163086Y228423D01*
X190414D01*
X240971Y177866D01*
Y144133D01*
X236202Y139365D01*
X235871Y138869D01*
X235754Y138284D01*
Y133051D01*
X234512D01*
Y130029D01*
X195488D01*
Y132551D01*
X189945D01*
Y124449D01*
X195488D01*
Y126971D01*
X234512D01*
Y124949D01*
X240055D01*
Y133051D01*
X238813D01*
Y137650D01*
X243581Y142419D01*
X243913Y142915D01*
X244029Y143500D01*
Y172844D01*
X244529Y172877D01*
X244649Y171968D01*
X245047Y171007D01*
X245681Y170181D01*
X260913Y154949D01*
X260722Y154487D01*
X250488D01*
Y154551D01*
X244945D01*
Y146449D01*
X250488D01*
Y146513D01*
X269349D01*
X272513Y143349D01*
Y127644D01*
X265783Y120913D01*
X259579D01*
Y109071D01*
Y99071D01*
X271421D01*
Y101005D01*
X288992D01*
X288992Y101005D01*
X290024Y101141D01*
X290986Y101539D01*
X291811Y102173D01*
X310651Y121013D01*
X317149D01*
X317356Y120513D01*
X316799Y119956D01*
X316273Y119044D01*
X316000Y118027D01*
Y116973D01*
X316273Y115956D01*
X316799Y115044D01*
X317544Y114299D01*
X318456Y113773D01*
X319473Y113500D01*
X320527D01*
X321544Y113773D01*
X322456Y114299D01*
X323201Y115044D01*
X323727Y115956D01*
X324000Y116973D01*
Y118027D01*
X323727Y119044D01*
X323201Y119956D01*
X323556Y120306D01*
X328013Y115849D01*
Y88500D01*
X328013Y88500D01*
X328149Y87468D01*
X328547Y86507D01*
X329181Y85681D01*
X335547Y79315D01*
Y77047D01*
X339241D01*
X339500Y77013D01*
X339759Y77047D01*
X343453D01*
Y80741D01*
X343487Y81000D01*
X343453Y81259D01*
Y84953D01*
X341185D01*
X335987Y90151D01*
Y109716D01*
X336487Y109923D01*
X337073Y109337D01*
X337974Y108817D01*
X338980Y108547D01*
X340020D01*
X341026Y108817D01*
X341927Y109337D01*
X342663Y110073D01*
X343183Y110974D01*
X343453Y111980D01*
Y113020D01*
X343183Y114026D01*
X342663Y114927D01*
X341927Y115663D01*
X341026Y116183D01*
X340020Y116453D01*
X338980D01*
X337974Y116183D01*
X337073Y115663D01*
X336487Y115077D01*
X335987Y115284D01*
Y117500D01*
X335851Y118532D01*
X335453Y119493D01*
X334819Y120319D01*
X334819Y120319D01*
X327319Y127819D01*
X326493Y128453D01*
X325532Y128851D01*
X324500Y128987D01*
X324500Y128987D01*
X309000D01*
X309000Y128987D01*
X307968Y128851D01*
X307007Y128453D01*
X306181Y127819D01*
X306181Y127819D01*
X287341Y108979D01*
X271421D01*
Y115275D01*
X279319Y123173D01*
X279953Y123999D01*
X280351Y124960D01*
X280487Y125992D01*
X280487Y125992D01*
Y145000D01*
X280351Y146032D01*
X279953Y146993D01*
X279319Y147819D01*
X279319Y147819D01*
X273819Y153319D01*
X273819Y153319D01*
X252487Y174651D01*
Y225000D01*
X252487Y225000D01*
X252351Y226032D01*
X251953Y226993D01*
X251319Y227819D01*
X251319Y227819D01*
X232319Y246819D01*
X231493Y247453D01*
X230532Y247851D01*
X229500Y247987D01*
X228468Y247851D01*
X227507Y247453D01*
X226681Y246819D01*
X226047Y245993D01*
X225649Y245032D01*
X225513Y244000D01*
X225649Y242968D01*
X226047Y242007D01*
X226681Y241181D01*
X244513Y223349D01*
Y178631D01*
X244013Y178582D01*
X243913Y179085D01*
X243581Y179581D01*
X192129Y231034D01*
X191632Y231366D01*
X191047Y231482D01*
X184782D01*
X184467Y231982D01*
X184493Y232047D01*
X184701Y232206D01*
X184927Y232337D01*
X185112Y232522D01*
X185319Y232681D01*
X185478Y232888D01*
X185663Y233073D01*
X185794Y233299D01*
X185953Y233507D01*
X186053Y233748D01*
X186183Y233974D01*
X186251Y234227D01*
X186351Y234468D01*
X186385Y234727D01*
X186453Y234980D01*
Y235241D01*
X186487Y235500D01*
X186487Y235500D01*
Y245500D01*
X186453Y245759D01*
Y246020D01*
X186385Y246273D01*
X186351Y246532D01*
X186251Y246773D01*
X186183Y247026D01*
X186053Y247252D01*
X185953Y247493D01*
X185794Y247701D01*
X185663Y247927D01*
X185478Y248112D01*
X185319Y248319D01*
X185112Y248478D01*
X184927Y248663D01*
X184701Y248794D01*
X184493Y248953D01*
X184252Y249053D01*
X184026Y249183D01*
X183773Y249251D01*
X183532Y249351D01*
X183273Y249385D01*
X183020Y249453D01*
X182759D01*
X182500Y249487D01*
X182241Y249453D01*
X181980D01*
X181727Y249385D01*
X181468Y249351D01*
X181227Y249251D01*
X180974Y249183D01*
X180748Y249053D01*
X180507Y248953D01*
X180299Y248794D01*
X180073Y248663D01*
X179888Y248478D01*
X179681Y248319D01*
X179522Y248112D01*
X179337Y247927D01*
X179206Y247701D01*
X179047Y247493D01*
X178947Y247252D01*
X178817Y247026D01*
X178749Y246773D01*
X178649Y246532D01*
X178615Y246273D01*
X178547Y246020D01*
Y245798D01*
X178480Y245740D01*
X178024Y245614D01*
X163919Y259719D01*
X163093Y260353D01*
X162132Y260751D01*
X162012Y260767D01*
X161100Y260887D01*
D02*
G37*
G36*
X339000Y258487D02*
X338741Y258453D01*
X338480D01*
X338227Y258385D01*
X337968Y258351D01*
X337727Y258251D01*
X337474Y258183D01*
X337248Y258053D01*
X337007Y257953D01*
X336799Y257794D01*
X336573Y257663D01*
X336388Y257478D01*
X336181Y257319D01*
X336022Y257112D01*
X335837Y256927D01*
X335706Y256701D01*
X335547Y256493D01*
X335447Y256252D01*
X335317Y256026D01*
X335249Y255773D01*
X335149Y255532D01*
X335115Y255273D01*
X335047Y255020D01*
Y254759D01*
X335013Y254500D01*
X335047Y254241D01*
Y253980D01*
X335115Y253727D01*
X335149Y253468D01*
X335249Y253227D01*
X335317Y252974D01*
X335447Y252748D01*
X335547Y252507D01*
X335706Y252299D01*
X335837Y252073D01*
X336022Y251888D01*
X336181Y251681D01*
X338947Y248915D01*
X338756Y248453D01*
X338480D01*
X337478Y248184D01*
X333581Y252081D01*
X333085Y252413D01*
X332500Y252529D01*
X262500D01*
X261915Y252413D01*
X261419Y252081D01*
X259290Y249953D01*
X253547D01*
Y242047D01*
X261453D01*
Y247790D01*
X263134Y249471D01*
X284674D01*
X284881Y248994D01*
X284878Y248971D01*
X284681Y248819D01*
X284522Y248612D01*
X284337Y248427D01*
X284206Y248201D01*
X284047Y247993D01*
X283947Y247752D01*
X283817Y247526D01*
X283749Y247273D01*
X283649Y247032D01*
X283615Y246773D01*
X283547Y246520D01*
Y246259D01*
X283513Y246000D01*
Y236000D01*
X283547Y235741D01*
Y235480D01*
X283615Y235227D01*
X283649Y234968D01*
X283749Y234727D01*
X283817Y234474D01*
X283947Y234248D01*
X284047Y234007D01*
X284206Y233799D01*
X284337Y233573D01*
X284126Y233077D01*
X262586D01*
X261185Y234478D01*
X261453Y235480D01*
Y236520D01*
X261183Y237526D01*
X260663Y238427D01*
X259927Y239163D01*
X259026Y239683D01*
X258020Y239953D01*
X256980D01*
X255974Y239683D01*
X255073Y239163D01*
X254337Y238427D01*
X253817Y237526D01*
X253547Y236520D01*
Y235480D01*
X253817Y234474D01*
X254337Y233573D01*
X255073Y232837D01*
X255974Y232317D01*
X256980Y232047D01*
X258020D01*
X259022Y232315D01*
X260871Y230466D01*
X261368Y230134D01*
X261953Y230018D01*
X295047D01*
X295633Y230134D01*
X296129Y230466D01*
X310633Y244971D01*
X317655D01*
X317755Y244471D01*
X316543Y243969D01*
X315347Y243170D01*
X314330Y242153D01*
X313531Y240957D01*
X312981Y239629D01*
X312701Y238219D01*
Y236781D01*
X312981Y235371D01*
X313531Y234043D01*
X314330Y232847D01*
X315347Y231830D01*
X316543Y231031D01*
X317871Y230481D01*
X319281Y230201D01*
X320719D01*
X322129Y230481D01*
X323458Y231031D01*
X324653Y231830D01*
X325670Y232847D01*
X326468Y234043D01*
X327019Y235371D01*
X327299Y236781D01*
Y238219D01*
X327019Y239629D01*
X326468Y240957D01*
X325670Y242153D01*
X324653Y243170D01*
X323458Y243969D01*
X322245Y244471D01*
X322345Y244971D01*
X328366D01*
X336123Y237214D01*
X335837Y236927D01*
X335317Y236026D01*
X335047Y235020D01*
Y233980D01*
X335317Y232974D01*
X335837Y232073D01*
X336573Y231337D01*
X337474Y230817D01*
X338480Y230547D01*
X339520D01*
X340526Y230817D01*
X341427Y231337D01*
X341551Y231461D01*
X342013Y231270D01*
Y227730D01*
X341551Y227539D01*
X341427Y227663D01*
X340526Y228183D01*
X339520Y228453D01*
X338480D01*
X337474Y228183D01*
X336573Y227663D01*
X335837Y226927D01*
X335317Y226026D01*
X335047Y225020D01*
Y223980D01*
X335317Y222974D01*
X335837Y222073D01*
X336573Y221337D01*
X337474Y220817D01*
X338480Y220547D01*
X339520D01*
X340526Y220817D01*
X341427Y221337D01*
X341551Y221461D01*
X342013Y221270D01*
Y217730D01*
X341551Y217539D01*
X341427Y217663D01*
X340526Y218183D01*
X339520Y218453D01*
X338480D01*
X337474Y218183D01*
X336573Y217663D01*
X335837Y216927D01*
X335317Y216026D01*
X335047Y215020D01*
Y213980D01*
X335317Y212974D01*
X335837Y212073D01*
X336573Y211337D01*
X337474Y210817D01*
X338480Y210547D01*
X339520D01*
X340526Y210817D01*
X341427Y211337D01*
X341551Y211461D01*
X342013Y211270D01*
Y207730D01*
X341551Y207539D01*
X341427Y207663D01*
X340526Y208183D01*
X339520Y208453D01*
X338480D01*
X337474Y208183D01*
X336573Y207663D01*
X335837Y206927D01*
X335317Y206026D01*
X335047Y205020D01*
Y203980D01*
X335317Y202974D01*
X335837Y202073D01*
X336573Y201337D01*
X337474Y200817D01*
X338480Y200547D01*
X339520D01*
X340526Y200817D01*
X341427Y201337D01*
X341551Y201461D01*
X342013Y201270D01*
Y197730D01*
X341551Y197539D01*
X341427Y197663D01*
X340526Y198183D01*
X339520Y198453D01*
X338480D01*
X337474Y198183D01*
X336573Y197663D01*
X335837Y196927D01*
X335317Y196026D01*
X335047Y195020D01*
Y193980D01*
X335317Y192974D01*
X335837Y192073D01*
X336573Y191337D01*
X337474Y190817D01*
X338480Y190547D01*
X339520D01*
X340526Y190817D01*
X341427Y191337D01*
X341551Y191461D01*
X342013Y191270D01*
Y187730D01*
X341551Y187539D01*
X341427Y187663D01*
X340526Y188183D01*
X339520Y188453D01*
X338480D01*
X337474Y188183D01*
X336573Y187663D01*
X335837Y186927D01*
X335317Y186026D01*
X335047Y185020D01*
Y183980D01*
X335317Y182974D01*
X335837Y182073D01*
X336573Y181337D01*
X337474Y180817D01*
X338480Y180547D01*
X339520D01*
X340526Y180817D01*
X341427Y181337D01*
X341551Y181461D01*
X342013Y181270D01*
Y177730D01*
X341551Y177539D01*
X341427Y177663D01*
X340526Y178183D01*
X339520Y178453D01*
X338480D01*
X337474Y178183D01*
X336573Y177663D01*
X335837Y176927D01*
X335317Y176026D01*
X335047Y175020D01*
Y173980D01*
X335317Y172974D01*
X335837Y172073D01*
X336573Y171337D01*
X337474Y170817D01*
X338480Y170547D01*
X339520D01*
X340526Y170817D01*
X341427Y171337D01*
X341551Y171461D01*
X342013Y171270D01*
Y167730D01*
X341551Y167539D01*
X341427Y167663D01*
X340526Y168183D01*
X339520Y168453D01*
X338480D01*
X337474Y168183D01*
X336573Y167663D01*
X335837Y166927D01*
X335317Y166026D01*
X335047Y165020D01*
Y163980D01*
X335317Y162974D01*
X335837Y162073D01*
X336573Y161337D01*
X337474Y160817D01*
X338480Y160547D01*
X339520D01*
X340526Y160817D01*
X341427Y161337D01*
X341551Y161461D01*
X342013Y161270D01*
Y140651D01*
X337814Y136453D01*
X335547D01*
Y132759D01*
X335513Y132500D01*
X335547Y132241D01*
Y128547D01*
X339241D01*
X339500Y128513D01*
X339759Y128547D01*
X343453D01*
Y130815D01*
X348819Y136181D01*
X348819Y136181D01*
X349453Y137007D01*
X349851Y137968D01*
X349987Y139000D01*
X349987Y139000D01*
Y247500D01*
X349851Y248532D01*
X349453Y249493D01*
X348819Y250319D01*
X348819Y250319D01*
X341819Y257319D01*
X341612Y257478D01*
X341427Y257663D01*
X341201Y257794D01*
X340993Y257953D01*
X340752Y258053D01*
X340526Y258183D01*
X340273Y258251D01*
X340032Y258351D01*
X339773Y258385D01*
X339520Y258453D01*
X339259D01*
X339000Y258487D01*
D02*
G37*
G36*
X13503Y255468D02*
X12065D01*
X10655Y255188D01*
X9326Y254638D01*
X8131Y253839D01*
X7114Y252822D01*
X6316Y251626D01*
X5765Y250298D01*
X5485Y248888D01*
Y247450D01*
X5765Y246040D01*
X6316Y244711D01*
X7114Y243516D01*
X8131Y242499D01*
X9326Y241701D01*
X10655Y241150D01*
X12065Y240870D01*
X13503D01*
X14913Y241150D01*
X16241Y241701D01*
X17437Y242499D01*
X18454Y243516D01*
X19252Y244711D01*
X19803Y246040D01*
X20083Y247450D01*
Y248888D01*
X19803Y250298D01*
X19252Y251626D01*
X18454Y252822D01*
X17437Y253839D01*
X16241Y254638D01*
X14913Y255188D01*
X13503Y255468D01*
D02*
G37*
G36*
X68020Y243453D02*
X66980D01*
X65974Y243183D01*
X65073Y242663D01*
X64337Y241927D01*
X63817Y241026D01*
X63547Y240020D01*
Y238980D01*
X63817Y237974D01*
X64337Y237073D01*
X65073Y236337D01*
X65974Y235817D01*
X66980Y235547D01*
X68020D01*
X69026Y235817D01*
X69927Y236337D01*
X70663Y237073D01*
X71183Y237974D01*
X71453Y238980D01*
Y240020D01*
X71183Y241026D01*
X70663Y241927D01*
X69927Y242663D01*
X69026Y243183D01*
X68020Y243453D01*
D02*
G37*
G36*
Y233453D02*
X66980D01*
X65974Y233183D01*
X65073Y232663D01*
X64337Y231927D01*
X63817Y231026D01*
X63547Y230020D01*
Y228980D01*
X63817Y227974D01*
X64337Y227073D01*
X65073Y226337D01*
X65974Y225817D01*
X66980Y225547D01*
X68020D01*
X69026Y225817D01*
X69927Y226337D01*
X70663Y227073D01*
X71183Y227974D01*
X71453Y228980D01*
Y230020D01*
X71183Y231026D01*
X70663Y231927D01*
X69927Y232663D01*
X69026Y233183D01*
X68020Y233453D01*
D02*
G37*
G36*
X258020Y229953D02*
X256980D01*
X255974Y229683D01*
X255073Y229163D01*
X254337Y228427D01*
X253817Y227526D01*
X253547Y226520D01*
Y225480D01*
X253817Y224474D01*
X254337Y223573D01*
X255073Y222837D01*
X255974Y222317D01*
X256980Y222047D01*
X258020D01*
X259026Y222317D01*
X259927Y222837D01*
X260663Y223573D01*
X261183Y224474D01*
X261453Y225480D01*
Y226520D01*
X261183Y227526D01*
X260663Y228427D01*
X259927Y229163D01*
X259026Y229683D01*
X258020Y229953D01*
D02*
G37*
G36*
X320527Y227500D02*
X319473D01*
X318456Y227227D01*
X317544Y226701D01*
X316799Y225956D01*
X316273Y225044D01*
X316000Y224027D01*
Y222973D01*
X316273Y221956D01*
X316799Y221044D01*
X317544Y220299D01*
X318456Y219773D01*
X319473Y219500D01*
X320527D01*
X321544Y219773D01*
X322456Y220299D01*
X323201Y221044D01*
X323727Y221956D01*
X324000Y222973D01*
Y224027D01*
X323727Y225044D01*
X323201Y225956D01*
X322456Y226701D01*
X321544Y227227D01*
X320527Y227500D01*
D02*
G37*
G36*
X288020Y219953D02*
X286980D01*
X285974Y219683D01*
X285073Y219163D01*
X284337Y218427D01*
X283817Y217526D01*
X283547Y216520D01*
Y215480D01*
X283817Y214474D01*
X284337Y213573D01*
X285073Y212837D01*
X285974Y212317D01*
X286980Y212047D01*
X288020D01*
X289026Y212317D01*
X289927Y212837D01*
X290663Y213573D01*
X291183Y214474D01*
X291453Y215480D01*
Y216520D01*
X291183Y217526D01*
X290663Y218427D01*
X289927Y219163D01*
X289026Y219683D01*
X288020Y219953D01*
D02*
G37*
G36*
X258020D02*
X256980D01*
X255974Y219683D01*
X255073Y219163D01*
X254337Y218427D01*
X253817Y217526D01*
X253547Y216520D01*
Y215480D01*
X253817Y214474D01*
X254337Y213573D01*
X255073Y212837D01*
X255974Y212317D01*
X256980Y212047D01*
X258020D01*
X259026Y212317D01*
X259927Y212837D01*
X260663Y213573D01*
X261183Y214474D01*
X261453Y215480D01*
Y216520D01*
X261183Y217526D01*
X260663Y218427D01*
X259927Y219163D01*
X259026Y219683D01*
X258020Y219953D01*
D02*
G37*
G36*
X320527Y217500D02*
X319473D01*
X318456Y217227D01*
X317544Y216701D01*
X316799Y215956D01*
X316273Y215044D01*
X316000Y214027D01*
Y212973D01*
X316273Y211956D01*
X316799Y211044D01*
X317544Y210299D01*
X318456Y209773D01*
X319473Y209500D01*
X320527D01*
X321544Y209773D01*
X322456Y210299D01*
X323201Y211044D01*
X323727Y211956D01*
X324000Y212973D01*
Y214027D01*
X323727Y215044D01*
X323201Y215956D01*
X322456Y216701D01*
X321544Y217227D01*
X320527Y217500D01*
D02*
G37*
G36*
X100804Y213122D02*
X99764D01*
X98758Y212852D01*
X97857Y212332D01*
X97121Y211596D01*
X96601Y210695D01*
X96331Y209689D01*
Y208649D01*
X96601Y207643D01*
X97121Y206742D01*
X97857Y206006D01*
X98758Y205486D01*
X99764Y205216D01*
X100804D01*
X101810Y205486D01*
X102711Y206006D01*
X103447Y206742D01*
X103967Y207643D01*
X104237Y208649D01*
Y209689D01*
X103967Y210695D01*
X103447Y211596D01*
X102711Y212332D01*
X101810Y212852D01*
X100804Y213122D01*
D02*
G37*
G36*
X288020Y209953D02*
X286980D01*
X285974Y209683D01*
X285073Y209163D01*
X284337Y208427D01*
X283817Y207526D01*
X283547Y206520D01*
Y205480D01*
X283817Y204474D01*
X284337Y203573D01*
X285073Y202837D01*
X285974Y202317D01*
X286980Y202047D01*
X288020D01*
X289026Y202317D01*
X289927Y202837D01*
X290663Y203573D01*
X291183Y204474D01*
X291453Y205480D01*
Y206520D01*
X291183Y207526D01*
X290663Y208427D01*
X289927Y209163D01*
X289026Y209683D01*
X288020Y209953D01*
D02*
G37*
G36*
X258020D02*
X256980D01*
X255974Y209683D01*
X255073Y209163D01*
X254337Y208427D01*
X253817Y207526D01*
X253547Y206520D01*
Y205480D01*
X253817Y204474D01*
X254337Y203573D01*
X255073Y202837D01*
X255974Y202317D01*
X256980Y202047D01*
X258020D01*
X259026Y202317D01*
X259927Y202837D01*
X260663Y203573D01*
X261183Y204474D01*
X261453Y205480D01*
Y206520D01*
X261183Y207526D01*
X260663Y208427D01*
X259927Y209163D01*
X259026Y209683D01*
X258020Y209953D01*
D02*
G37*
G36*
X320527Y207500D02*
X319473D01*
X318456Y207227D01*
X317544Y206701D01*
X316799Y205956D01*
X316273Y205044D01*
X316000Y204027D01*
Y202973D01*
X316273Y201956D01*
X316799Y201044D01*
X317544Y200299D01*
X318456Y199773D01*
X319473Y199500D01*
X320527D01*
X321544Y199773D01*
X322456Y200299D01*
X323201Y201044D01*
X323727Y201956D01*
X324000Y202973D01*
Y204027D01*
X323727Y205044D01*
X323201Y205956D01*
X322456Y206701D01*
X321544Y207227D01*
X320527Y207500D01*
D02*
G37*
G36*
X110804Y203122D02*
X109764D01*
X108758Y202852D01*
X107857Y202332D01*
X107121Y201596D01*
X106601Y200695D01*
X106331Y199689D01*
Y198649D01*
X106601Y197643D01*
X107121Y196742D01*
X107857Y196006D01*
X108758Y195486D01*
X109764Y195216D01*
X110804D01*
X111810Y195486D01*
X112711Y196006D01*
X113447Y196742D01*
X113967Y197643D01*
X114237Y198649D01*
Y199689D01*
X113967Y200695D01*
X113447Y201596D01*
X112711Y202332D01*
X111810Y202852D01*
X110804Y203122D01*
D02*
G37*
G36*
X100804D02*
X99764D01*
X98758Y202852D01*
X97857Y202332D01*
X97121Y201596D01*
X96601Y200695D01*
X96331Y199689D01*
Y198649D01*
X96601Y197643D01*
X97121Y196742D01*
X97857Y196006D01*
X98758Y195486D01*
X99764Y195216D01*
X100804D01*
X101810Y195486D01*
X102711Y196006D01*
X103447Y196742D01*
X103967Y197643D01*
X104237Y198649D01*
Y199689D01*
X103967Y200695D01*
X103447Y201596D01*
X102711Y202332D01*
X101810Y202852D01*
X100804Y203122D01*
D02*
G37*
G36*
X288020Y199953D02*
X286980D01*
X285974Y199683D01*
X285073Y199163D01*
X284337Y198427D01*
X283817Y197526D01*
X283547Y196520D01*
Y195480D01*
X283817Y194474D01*
X284337Y193573D01*
X285073Y192837D01*
X285974Y192317D01*
X286980Y192047D01*
X288020D01*
X289026Y192317D01*
X289927Y192837D01*
X290663Y193573D01*
X291183Y194474D01*
X291453Y195480D01*
Y196520D01*
X291183Y197526D01*
X290663Y198427D01*
X289927Y199163D01*
X289026Y199683D01*
X288020Y199953D01*
D02*
G37*
G36*
X258020D02*
X256980D01*
X255974Y199683D01*
X255073Y199163D01*
X254337Y198427D01*
X253817Y197526D01*
X253547Y196520D01*
Y195480D01*
X253817Y194474D01*
X254337Y193573D01*
X255073Y192837D01*
X255974Y192317D01*
X256980Y192047D01*
X258020D01*
X259026Y192317D01*
X259927Y192837D01*
X260663Y193573D01*
X261183Y194474D01*
X261453Y195480D01*
Y196520D01*
X261183Y197526D01*
X260663Y198427D01*
X259927Y199163D01*
X259026Y199683D01*
X258020Y199953D01*
D02*
G37*
G36*
X110804Y193122D02*
X109764D01*
X108758Y192852D01*
X107857Y192332D01*
X107121Y191596D01*
X106601Y190695D01*
X106331Y189689D01*
Y188649D01*
X106601Y187643D01*
X107121Y186742D01*
X107857Y186006D01*
X108758Y185486D01*
X109764Y185216D01*
X110804D01*
X111810Y185486D01*
X112711Y186006D01*
X113447Y186742D01*
X113967Y187643D01*
X114237Y188649D01*
Y189689D01*
X113967Y190695D01*
X113447Y191596D01*
X112711Y192332D01*
X111810Y192852D01*
X110804Y193122D01*
D02*
G37*
G36*
X130527Y191500D02*
X129473D01*
X128456Y191227D01*
X127544Y190701D01*
X126799Y189956D01*
X126273Y189044D01*
X126000Y188027D01*
Y186973D01*
X126273Y185956D01*
X126799Y185044D01*
X127544Y184299D01*
X128456Y183773D01*
X129473Y183500D01*
X130527D01*
X131544Y183773D01*
X132456Y184299D01*
X133201Y185044D01*
X133727Y185956D01*
X134000Y186973D01*
Y188027D01*
X133727Y189044D01*
X133201Y189956D01*
X132456Y190701D01*
X131544Y191227D01*
X130527Y191500D01*
D02*
G37*
G36*
X288020Y189953D02*
X286980D01*
X285974Y189683D01*
X285073Y189163D01*
X284337Y188427D01*
X283817Y187526D01*
X283547Y186520D01*
Y185480D01*
X283817Y184474D01*
X284337Y183573D01*
X285073Y182837D01*
X285974Y182317D01*
X286980Y182047D01*
X288020D01*
X289026Y182317D01*
X289927Y182837D01*
X290663Y183573D01*
X291183Y184474D01*
X291453Y185480D01*
Y186520D01*
X291183Y187526D01*
X290663Y188427D01*
X289927Y189163D01*
X289026Y189683D01*
X288020Y189953D01*
D02*
G37*
G36*
X258020D02*
X256980D01*
X255974Y189683D01*
X255073Y189163D01*
X254337Y188427D01*
X253817Y187526D01*
X253547Y186520D01*
Y185480D01*
X253817Y184474D01*
X254337Y183573D01*
X255073Y182837D01*
X255974Y182317D01*
X256980Y182047D01*
X258020D01*
X259026Y182317D01*
X259927Y182837D01*
X260663Y183573D01*
X261183Y184474D01*
X261453Y185480D01*
Y186520D01*
X261183Y187526D01*
X260663Y188427D01*
X259927Y189163D01*
X259026Y189683D01*
X258020Y189953D01*
D02*
G37*
G36*
X320527Y187500D02*
X319473D01*
X318456Y187227D01*
X317544Y186701D01*
X316799Y185956D01*
X316273Y185044D01*
X316000Y184027D01*
Y182973D01*
X316273Y181956D01*
X316799Y181044D01*
X317544Y180299D01*
X318456Y179773D01*
X319473Y179500D01*
X320527D01*
X321544Y179773D01*
X322456Y180299D01*
X323201Y181044D01*
X323727Y181956D01*
X324000Y182973D01*
Y184027D01*
X323727Y185044D01*
X323201Y185956D01*
X322456Y186701D01*
X321544Y187227D01*
X320527Y187500D01*
D02*
G37*
G36*
X110804Y183122D02*
X109764D01*
X108758Y182852D01*
X107857Y182332D01*
X107121Y181596D01*
X106601Y180695D01*
X106331Y179689D01*
Y178649D01*
X106601Y177643D01*
X107121Y176742D01*
X107857Y176006D01*
X108758Y175486D01*
X109764Y175216D01*
X110804D01*
X111810Y175486D01*
X112711Y176006D01*
X113447Y176742D01*
X113967Y177643D01*
X114237Y178649D01*
Y179689D01*
X113967Y180695D01*
X113447Y181596D01*
X112711Y182332D01*
X111810Y182852D01*
X110804Y183122D01*
D02*
G37*
G36*
X100804D02*
X99764D01*
X98758Y182852D01*
X97857Y182332D01*
X97121Y181596D01*
X96601Y180695D01*
X96331Y179689D01*
Y178649D01*
X96601Y177643D01*
X97121Y176742D01*
X97857Y176006D01*
X98758Y175486D01*
X99764Y175216D01*
X100804D01*
X101810Y175486D01*
X102711Y176006D01*
X103447Y176742D01*
X103967Y177643D01*
X104237Y178649D01*
Y179689D01*
X103967Y180695D01*
X103447Y181596D01*
X102711Y182332D01*
X101810Y182852D01*
X100804Y183122D01*
D02*
G37*
G36*
X130527Y181500D02*
X129473D01*
X128456Y181227D01*
X127544Y180701D01*
X126799Y179956D01*
X126273Y179044D01*
X126000Y178027D01*
Y176973D01*
X126273Y175956D01*
X126799Y175044D01*
X127544Y174299D01*
X128456Y173773D01*
X129473Y173500D01*
X130527D01*
X131544Y173773D01*
X132456Y174299D01*
X133201Y175044D01*
X133727Y175956D01*
X134000Y176973D01*
Y178027D01*
X133727Y179044D01*
X133201Y179956D01*
X132456Y180701D01*
X131544Y181227D01*
X130527Y181500D01*
D02*
G37*
G36*
X258020Y179953D02*
X256980D01*
X255974Y179683D01*
X255073Y179163D01*
X254337Y178427D01*
X253817Y177526D01*
X253547Y176520D01*
Y175480D01*
X253817Y174474D01*
X254337Y173573D01*
X255073Y172837D01*
X255974Y172317D01*
X256980Y172047D01*
X258020D01*
X259026Y172317D01*
X259927Y172837D01*
X260663Y173573D01*
X261183Y174474D01*
X261453Y175480D01*
Y176520D01*
X261183Y177526D01*
X260663Y178427D01*
X259927Y179163D01*
X259026Y179683D01*
X258020Y179953D01*
D02*
G37*
G36*
X153020Y179453D02*
X151980D01*
X150974Y179183D01*
X150073Y178663D01*
X149337Y177927D01*
X148817Y177026D01*
X148547Y176020D01*
Y174980D01*
X148817Y173974D01*
X149337Y173073D01*
X150073Y172337D01*
X150974Y171817D01*
X151980Y171547D01*
X153020D01*
X154026Y171817D01*
X154927Y172337D01*
X155663Y173073D01*
X156183Y173974D01*
X156453Y174980D01*
Y176020D01*
X156183Y177026D01*
X155663Y177927D01*
X154927Y178663D01*
X154026Y179183D01*
X153020Y179453D01*
D02*
G37*
G36*
X320527Y177500D02*
X319473D01*
X318456Y177227D01*
X317544Y176701D01*
X316799Y175956D01*
X316273Y175044D01*
X316000Y174027D01*
Y172973D01*
X316273Y171956D01*
X316799Y171044D01*
X317544Y170299D01*
X318456Y169773D01*
X319473Y169500D01*
X320527D01*
X321544Y169773D01*
X322456Y170299D01*
X323201Y171044D01*
X323727Y171956D01*
X324000Y172973D01*
Y174027D01*
X323727Y175044D01*
X323201Y175956D01*
X322456Y176701D01*
X321544Y177227D01*
X320527Y177500D01*
D02*
G37*
G36*
X100804Y173122D02*
X99764D01*
X98758Y172852D01*
X97857Y172332D01*
X97121Y171596D01*
X96601Y170695D01*
X96331Y169689D01*
Y168649D01*
X96601Y167643D01*
X97121Y166742D01*
X97857Y166006D01*
X98758Y165486D01*
X99764Y165216D01*
X100804D01*
X101810Y165486D01*
X102711Y166006D01*
X103447Y166742D01*
X103967Y167643D01*
X104237Y168649D01*
Y169689D01*
X103967Y170695D01*
X103447Y171596D01*
X102711Y172332D01*
X101810Y172852D01*
X100804Y173122D01*
D02*
G37*
G36*
X130527Y171500D02*
X129473D01*
X128456Y171227D01*
X127544Y170701D01*
X126799Y169956D01*
X126273Y169044D01*
X126000Y168027D01*
Y166973D01*
X126273Y165956D01*
X126799Y165044D01*
X127544Y164299D01*
X128456Y163773D01*
X129473Y163500D01*
X130527D01*
X131544Y163773D01*
X132456Y164299D01*
X133201Y165044D01*
X133727Y165956D01*
X134000Y166973D01*
Y168027D01*
X133727Y169044D01*
X133201Y169956D01*
X132456Y170701D01*
X131544Y171227D01*
X130527Y171500D01*
D02*
G37*
G36*
X320527Y167500D02*
X319473D01*
X318456Y167227D01*
X317544Y166701D01*
X316799Y165956D01*
X316273Y165044D01*
X316000Y164027D01*
Y162973D01*
X316273Y161956D01*
X316799Y161044D01*
X317544Y160299D01*
X318456Y159773D01*
X319473Y159500D01*
X320527D01*
X321544Y159773D01*
X322456Y160299D01*
X323201Y161044D01*
X323727Y161956D01*
X324000Y162973D01*
Y164027D01*
X323727Y165044D01*
X323201Y165956D01*
X322456Y166701D01*
X321544Y167227D01*
X320527Y167500D01*
D02*
G37*
G36*
X110804Y163122D02*
X109764D01*
X108758Y162852D01*
X107857Y162332D01*
X107121Y161596D01*
X106601Y160695D01*
X106331Y159689D01*
Y158649D01*
X106601Y157643D01*
X107121Y156742D01*
X107857Y156006D01*
X108758Y155486D01*
X109764Y155216D01*
X110804D01*
X111810Y155486D01*
X112711Y156006D01*
X113447Y156742D01*
X113967Y157643D01*
X114237Y158649D01*
Y159689D01*
X113967Y160695D01*
X113447Y161596D01*
X112711Y162332D01*
X111810Y162852D01*
X110804Y163122D01*
D02*
G37*
G36*
X185055Y154551D02*
X182783D01*
Y151000D01*
X185055D01*
Y154551D01*
D02*
G37*
G36*
X181783D02*
X179512D01*
Y151000D01*
X181783D01*
Y154551D01*
D02*
G37*
G36*
X320527Y157500D02*
X319473D01*
X318456Y157227D01*
X317544Y156701D01*
X316799Y155956D01*
X316273Y155044D01*
X316000Y154027D01*
Y152973D01*
X316273Y151956D01*
X316799Y151044D01*
X317544Y150299D01*
X318456Y149773D01*
X319473Y149500D01*
X320527D01*
X321544Y149773D01*
X322456Y150299D01*
X323201Y151044D01*
X323727Y151956D01*
X324000Y152973D01*
Y154027D01*
X323727Y155044D01*
X323201Y155956D01*
X322456Y156701D01*
X321544Y157227D01*
X320527Y157500D01*
D02*
G37*
G36*
X185055Y150000D02*
X182783D01*
Y146449D01*
X185055D01*
Y150000D01*
D02*
G37*
G36*
X181783D02*
X179512D01*
Y146449D01*
X181783D01*
Y150000D01*
D02*
G37*
G36*
X110804Y153122D02*
X109764D01*
X108758Y152852D01*
X107857Y152332D01*
X107121Y151596D01*
X106601Y150695D01*
X106331Y149689D01*
Y148649D01*
X106601Y147643D01*
X107121Y146742D01*
X107857Y146006D01*
X108758Y145486D01*
X109764Y145216D01*
X110804D01*
X111810Y145486D01*
X112711Y146006D01*
X113447Y146742D01*
X113967Y147643D01*
X114237Y148649D01*
Y149689D01*
X113967Y150695D01*
X113447Y151596D01*
X112711Y152332D01*
X111810Y152852D01*
X110804Y153122D01*
D02*
G37*
G36*
X166961Y151000D02*
X166039D01*
X165149Y150761D01*
X164351Y150301D01*
X163699Y149649D01*
X163239Y148851D01*
X163000Y147961D01*
Y147039D01*
X163185Y146348D01*
X158419Y141581D01*
X158087Y141085D01*
X157971Y140500D01*
Y131658D01*
X157351Y131301D01*
X156699Y130649D01*
X156238Y129851D01*
X156000Y128961D01*
Y128039D01*
X156238Y127149D01*
X156699Y126351D01*
X157351Y125699D01*
X158149Y125239D01*
X159039Y125000D01*
X159961D01*
X160851Y125239D01*
X161649Y125699D01*
X162301Y126351D01*
X162761Y127149D01*
X163000Y128039D01*
Y128961D01*
X162761Y129851D01*
X162301Y130649D01*
X161649Y131301D01*
X161029Y131658D01*
Y139866D01*
X165348Y144185D01*
X166039Y144000D01*
X166961D01*
X167851Y144238D01*
X168649Y144699D01*
X169301Y145351D01*
X169762Y146149D01*
X170000Y147039D01*
Y147961D01*
X169762Y148851D01*
X169301Y149649D01*
X168649Y150301D01*
X167851Y150761D01*
X166961Y151000D01*
D02*
G37*
G36*
X320527Y147500D02*
X319473D01*
X318456Y147227D01*
X317544Y146701D01*
X316799Y145956D01*
X316273Y145044D01*
X316000Y144027D01*
Y142973D01*
X316273Y141956D01*
X316799Y141044D01*
X317544Y140299D01*
X318456Y139773D01*
X319473Y139500D01*
X320527D01*
X321544Y139773D01*
X322456Y140299D01*
X323201Y141044D01*
X323727Y141956D01*
X324000Y142973D01*
Y144027D01*
X323727Y145044D01*
X323201Y145956D01*
X322456Y146701D01*
X321544Y147227D01*
X320527Y147500D01*
D02*
G37*
G36*
X100804Y143122D02*
X99764D01*
X98758Y142852D01*
X97857Y142332D01*
X97121Y141596D01*
X96601Y140695D01*
X96331Y139689D01*
Y138649D01*
X96601Y137643D01*
X97121Y136742D01*
X97857Y136006D01*
X98758Y135486D01*
X99764Y135216D01*
X100804D01*
X101810Y135486D01*
X102711Y136006D01*
X103447Y136742D01*
X103967Y137643D01*
X104237Y138649D01*
Y139689D01*
X103967Y140695D01*
X103447Y141596D01*
X102711Y142332D01*
X101810Y142852D01*
X100804Y143122D01*
D02*
G37*
G36*
X250488Y133051D02*
X248217D01*
Y129500D01*
X250488D01*
Y133051D01*
D02*
G37*
G36*
X247217D02*
X244945D01*
Y129500D01*
X247217D01*
Y133051D01*
D02*
G37*
G36*
X324000Y137500D02*
X316000D01*
Y135029D01*
X296500D01*
X295915Y134913D01*
X295419Y134581D01*
X287337Y126500D01*
X286539D01*
X285649Y126261D01*
X284851Y125801D01*
X284199Y125149D01*
X283738Y124351D01*
X283500Y123461D01*
Y122539D01*
X283738Y121649D01*
X284199Y120851D01*
X284851Y120199D01*
X285649Y119738D01*
X286539Y119500D01*
X287461D01*
X288351Y119738D01*
X289149Y120199D01*
X289801Y120851D01*
X290262Y121649D01*
X290500Y122539D01*
Y123461D01*
X290262Y124351D01*
X289988Y124825D01*
X297133Y131971D01*
X316000D01*
Y129500D01*
X324000D01*
Y137500D01*
D02*
G37*
G36*
X100804Y133122D02*
X99764D01*
X98758Y132852D01*
X97857Y132332D01*
X97121Y131596D01*
X96601Y130695D01*
X96331Y129689D01*
Y128649D01*
X96601Y127643D01*
X97121Y126742D01*
X97857Y126006D01*
X98758Y125486D01*
X99764Y125216D01*
X100804D01*
X101810Y125486D01*
X102711Y126006D01*
X103447Y126742D01*
X103967Y127643D01*
X104237Y128649D01*
Y129689D01*
X103967Y130695D01*
X103447Y131596D01*
X102711Y132332D01*
X101810Y132852D01*
X100804Y133122D01*
D02*
G37*
G36*
X250488Y128500D02*
X248217D01*
Y124949D01*
X250488D01*
Y128500D01*
D02*
G37*
G36*
X247217D02*
X244945D01*
Y124949D01*
X247217D01*
Y128500D01*
D02*
G37*
G36*
X185055Y132551D02*
X179512D01*
Y131494D01*
X169500D01*
X168725Y131392D01*
X168003Y131093D01*
X167383Y130617D01*
X163383Y126617D01*
X162907Y125997D01*
X162608Y125275D01*
X162506Y124500D01*
Y121230D01*
X161929Y120921D01*
X159579D01*
Y118571D01*
X159089Y117655D01*
X158694Y116354D01*
X158561Y115000D01*
Y105000D01*
X158694Y103646D01*
X159089Y102345D01*
X159579Y101429D01*
Y99079D01*
X161608D01*
X170388Y90299D01*
Y49027D01*
X157699Y36338D01*
X157258Y36573D01*
X157299Y36781D01*
Y38219D01*
X157019Y39629D01*
X156468Y40957D01*
X155670Y42153D01*
X154653Y43170D01*
X153457Y43968D01*
X152129Y44519D01*
X150719Y44799D01*
X149281D01*
X147871Y44519D01*
X146543Y43968D01*
X145347Y43170D01*
X144330Y42153D01*
X143532Y40957D01*
X142981Y39629D01*
X142701Y38219D01*
Y36781D01*
X142981Y35371D01*
X143532Y34043D01*
X144330Y32847D01*
X145347Y31830D01*
X146543Y31032D01*
X147871Y30481D01*
X149281Y30201D01*
X150719D01*
X151356Y30327D01*
X151685Y29883D01*
X151334Y29226D01*
X150939Y27924D01*
X150806Y26570D01*
Y20074D01*
X146902D01*
Y2326D01*
X164650D01*
Y12829D01*
X164684Y13168D01*
Y19480D01*
X186902Y19480D01*
Y2326D01*
X204650D01*
Y19480D01*
X226902Y19480D01*
Y2326D01*
X244650D01*
Y20074D01*
X242715D01*
Y58224D01*
X242582Y59578D01*
X242187Y60879D01*
X241546Y62079D01*
X240683Y63130D01*
X183907Y119907D01*
X182855Y120770D01*
X181655Y121411D01*
X180354Y121806D01*
X179000Y121939D01*
X168494D01*
Y123260D01*
X170740Y125506D01*
X179512D01*
Y124449D01*
X185055D01*
Y132551D01*
D02*
G37*
G36*
X340020Y126453D02*
X338980D01*
X337974Y126183D01*
X337073Y125663D01*
X336337Y124927D01*
X335817Y124026D01*
X335547Y123020D01*
Y121980D01*
X335817Y120974D01*
X336337Y120073D01*
X337073Y119337D01*
X337974Y118817D01*
X338980Y118547D01*
X340020D01*
X341026Y118817D01*
X341927Y119337D01*
X342663Y120073D01*
X343183Y120974D01*
X343453Y121980D01*
Y123020D01*
X343183Y124026D01*
X342663Y124927D01*
X341927Y125663D01*
X341026Y126183D01*
X340020Y126453D01*
D02*
G37*
G36*
X134000Y121500D02*
X126000D01*
Y113500D01*
X134000D01*
Y121500D01*
D02*
G37*
G36*
X320527Y111500D02*
X319473D01*
X318456Y111227D01*
X317544Y110701D01*
X316799Y109956D01*
X316273Y109044D01*
X316000Y108027D01*
Y106973D01*
X316273Y105956D01*
X316799Y105044D01*
X317544Y104299D01*
X318456Y103773D01*
X319473Y103500D01*
X320527D01*
X321544Y103773D01*
X322456Y104299D01*
X323201Y105044D01*
X323727Y105956D01*
X324000Y106973D01*
Y108027D01*
X323727Y109044D01*
X323201Y109956D01*
X322456Y110701D01*
X321544Y111227D01*
X320527Y111500D01*
D02*
G37*
G36*
Y101500D02*
X319473D01*
X318456Y101227D01*
X317544Y100701D01*
X316799Y99956D01*
X316273Y99044D01*
X316000Y98027D01*
Y96973D01*
X316273Y95956D01*
X316799Y95044D01*
X317544Y94299D01*
X318456Y93773D01*
X319473Y93500D01*
X320527D01*
X321544Y93773D01*
X322456Y94299D01*
X323201Y95044D01*
X323727Y95956D01*
X324000Y96973D01*
Y98027D01*
X323727Y99044D01*
X323201Y99956D01*
X322456Y100701D01*
X321544Y101227D01*
X320527Y101500D01*
D02*
G37*
G36*
X134000D02*
X126000D01*
Y93500D01*
X134000D01*
Y101500D01*
D02*
G37*
G36*
X320527Y91500D02*
X319473D01*
X318456Y91227D01*
X317544Y90701D01*
X316799Y89956D01*
X316273Y89044D01*
X316000Y88027D01*
Y86973D01*
X316273Y85956D01*
X316799Y85044D01*
X317544Y84299D01*
X318456Y83773D01*
X319473Y83500D01*
X320527D01*
X321544Y83773D01*
X322456Y84299D01*
X323201Y85044D01*
X323727Y85956D01*
X324000Y86973D01*
Y88027D01*
X323727Y89044D01*
X323201Y89956D01*
X322456Y90701D01*
X321544Y91227D01*
X320527Y91500D01*
D02*
G37*
G36*
X130527D02*
X129473D01*
X128456Y91227D01*
X127544Y90701D01*
X126799Y89956D01*
X126273Y89044D01*
X126000Y88027D01*
Y86973D01*
X126273Y85956D01*
X126799Y85044D01*
X127544Y84299D01*
X128456Y83773D01*
X129473Y83500D01*
X130527D01*
X131544Y83773D01*
X132456Y84299D01*
X133201Y85044D01*
X133727Y85956D01*
X134000Y86973D01*
Y88027D01*
X133727Y89044D01*
X133201Y89956D01*
X132456Y90701D01*
X131544Y91227D01*
X130527Y91500D01*
D02*
G37*
G36*
X320527Y81500D02*
X319473D01*
X318456Y81227D01*
X317544Y80701D01*
X316799Y79956D01*
X316273Y79044D01*
X316000Y78027D01*
Y76973D01*
X316273Y75956D01*
X316799Y75044D01*
X317544Y74299D01*
X318456Y73773D01*
X319473Y73500D01*
X320527D01*
X321544Y73773D01*
X322456Y74299D01*
X323201Y75044D01*
X323727Y75956D01*
X324000Y76973D01*
Y78027D01*
X323727Y79044D01*
X323201Y79956D01*
X322456Y80701D01*
X321544Y81227D01*
X320527Y81500D01*
D02*
G37*
G36*
Y71500D02*
X319473D01*
X318456Y71227D01*
X317544Y70701D01*
X316799Y69956D01*
X316273Y69044D01*
X316000Y68027D01*
Y66973D01*
X316273Y65956D01*
X316799Y65044D01*
X317544Y64299D01*
X318456Y63773D01*
X319473Y63500D01*
X320527D01*
X321544Y63773D01*
X322456Y64299D01*
X323201Y65044D01*
X323727Y65956D01*
X324000Y66973D01*
Y68027D01*
X323727Y69044D01*
X323201Y69956D01*
X322456Y70701D01*
X321544Y71227D01*
X320527Y71500D01*
D02*
G37*
G36*
X340020Y64953D02*
X338980D01*
X337974Y64683D01*
X337073Y64163D01*
X336337Y63427D01*
X335817Y62526D01*
X335547Y61520D01*
Y60480D01*
X335817Y59474D01*
X336337Y58573D01*
X337073Y57837D01*
X337974Y57317D01*
X338980Y57047D01*
X340020D01*
X341026Y57317D01*
X341927Y57837D01*
X342663Y58573D01*
X343183Y59474D01*
X343453Y60480D01*
Y61520D01*
X343183Y62526D01*
X342663Y63427D01*
X341927Y64163D01*
X341026Y64683D01*
X340020Y64953D01*
D02*
G37*
G36*
X100804Y63122D02*
X99764D01*
X98758Y62852D01*
X97857Y62332D01*
X97121Y61596D01*
X96601Y60695D01*
X96331Y59689D01*
Y58649D01*
X96601Y57643D01*
X97121Y56742D01*
X97857Y56006D01*
X98758Y55486D01*
X99764Y55216D01*
X100804D01*
X101810Y55486D01*
X102711Y56006D01*
X103447Y56742D01*
X103967Y57643D01*
X104237Y58649D01*
Y59689D01*
X103967Y60695D01*
X103447Y61596D01*
X102711Y62332D01*
X101810Y62852D01*
X100804Y63122D01*
D02*
G37*
G36*
X320527Y61500D02*
X319473D01*
X318456Y61227D01*
X317544Y60701D01*
X316799Y59956D01*
X316273Y59044D01*
X316000Y58027D01*
Y56973D01*
X316273Y55956D01*
X316799Y55044D01*
X317544Y54299D01*
X318456Y53773D01*
X319473Y53500D01*
X320527D01*
X321544Y53773D01*
X322456Y54299D01*
X323201Y55044D01*
X323727Y55956D01*
X324000Y56973D01*
Y58027D01*
X323727Y59044D01*
X323201Y59956D01*
X322456Y60701D01*
X321544Y61227D01*
X320527Y61500D01*
D02*
G37*
G36*
X100804Y53122D02*
X99764D01*
X98758Y52852D01*
X97857Y52332D01*
X97121Y51596D01*
X96601Y50695D01*
X96331Y49689D01*
Y48649D01*
X96601Y47643D01*
X97121Y46742D01*
X97857Y46006D01*
X98758Y45486D01*
X99764Y45216D01*
X100804D01*
X101810Y45486D01*
X102711Y46006D01*
X103447Y46742D01*
X103967Y47643D01*
X104237Y48649D01*
Y49689D01*
X103967Y50695D01*
X103447Y51596D01*
X102711Y52332D01*
X101810Y52852D01*
X100804Y53122D01*
D02*
G37*
G36*
X324000Y51500D02*
X316000D01*
Y43500D01*
X324000D01*
Y51500D01*
D02*
G37*
G36*
X130527D02*
X129473D01*
X128456Y51227D01*
X127544Y50701D01*
X126799Y49956D01*
X126273Y49044D01*
X126000Y48027D01*
Y46973D01*
X126273Y45956D01*
X126799Y45044D01*
X127544Y44299D01*
X128456Y43773D01*
X129473Y43500D01*
X130527D01*
X131544Y43773D01*
X132456Y44299D01*
X133201Y45044D01*
X133727Y45956D01*
X134000Y46973D01*
Y48027D01*
X133727Y49044D01*
X133201Y49956D01*
X132456Y50701D01*
X131544Y51227D01*
X130527Y51500D01*
D02*
G37*
G36*
X152961Y88000D02*
X152039D01*
X151149Y87761D01*
X150351Y87301D01*
X149699Y86649D01*
X149239Y85851D01*
X149000Y84961D01*
Y84039D01*
X149239Y83149D01*
X149699Y82351D01*
X150351Y81699D01*
X150971Y81341D01*
Y59834D01*
X131835Y40698D01*
X113965D01*
X113447Y41596D01*
X112711Y42332D01*
X111810Y42852D01*
X110804Y43122D01*
X109764D01*
X108758Y42852D01*
X107857Y42332D01*
X107121Y41596D01*
X106601Y40695D01*
X106331Y39689D01*
Y38649D01*
X106601Y37643D01*
X107121Y36742D01*
X107857Y36006D01*
X108758Y35486D01*
X109764Y35216D01*
X110804D01*
X111810Y35486D01*
X112711Y36006D01*
X113447Y36742D01*
X113965Y37640D01*
X132469D01*
X133054Y37756D01*
X133550Y38088D01*
X153581Y58119D01*
X153913Y58615D01*
X154029Y59200D01*
Y81341D01*
X154649Y81699D01*
X155301Y82351D01*
X155762Y83149D01*
X156000Y84039D01*
Y84961D01*
X155762Y85851D01*
X155301Y86649D01*
X154649Y87301D01*
X153851Y87761D01*
X152961Y88000D01*
D02*
G37*
G36*
X260719Y44799D02*
X259281D01*
X257871Y44519D01*
X256542Y43968D01*
X255347Y43170D01*
X254330Y42153D01*
X253532Y40957D01*
X252981Y39629D01*
X252701Y38219D01*
Y36781D01*
X252981Y35371D01*
X253532Y34043D01*
X254330Y32847D01*
X255347Y31830D01*
X256542Y31032D01*
X257871Y30481D01*
X259281Y30201D01*
X260719D01*
X262129Y30481D01*
X263457Y31032D01*
X264653Y31830D01*
X265670Y32847D01*
X266469Y34043D01*
X267019Y35371D01*
X267299Y36781D01*
Y38219D01*
X267019Y39629D01*
X266469Y40957D01*
X265670Y42153D01*
X264653Y43170D01*
X263457Y43968D01*
X262129Y44519D01*
X260719Y44799D01*
D02*
G37*
G36*
X107003Y27468D02*
X105565D01*
X104155Y27188D01*
X102826Y26638D01*
X101631Y25839D01*
X100614Y24822D01*
X99815Y23627D01*
X99265Y22298D01*
X98985Y20888D01*
Y19450D01*
X99265Y18040D01*
X99815Y16712D01*
X100614Y15516D01*
X101631Y14499D01*
X102826Y13701D01*
X104155Y13150D01*
X105565Y12870D01*
X107003D01*
X108413Y13150D01*
X109741Y13701D01*
X110937Y14499D01*
X111954Y15516D01*
X112752Y16712D01*
X113303Y18040D01*
X113583Y19450D01*
Y20888D01*
X113303Y22298D01*
X112752Y23627D01*
X111954Y24822D01*
X110937Y25839D01*
X109741Y26638D01*
X108413Y27188D01*
X107003Y27468D01*
D02*
G37*
G36*
X351219Y27299D02*
X349781D01*
X348371Y27019D01*
X347042Y26469D01*
X345847Y25670D01*
X344830Y24653D01*
X344032Y23458D01*
X343481Y22129D01*
X343201Y20719D01*
Y19281D01*
X343481Y17871D01*
X344032Y16543D01*
X344830Y15347D01*
X345847Y14330D01*
X347042Y13532D01*
X348371Y12981D01*
X349781Y12701D01*
X351219D01*
X352629Y12981D01*
X353958Y13532D01*
X355153Y14330D01*
X356170Y15347D01*
X356968Y16543D01*
X357519Y17871D01*
X357799Y19281D01*
Y20719D01*
X357519Y22129D01*
X356968Y23458D01*
X356170Y24653D01*
X355153Y25670D01*
X353958Y26469D01*
X352629Y27019D01*
X351219Y27299D01*
D02*
G37*
G36*
X14503Y26968D02*
X13065D01*
X11655Y26688D01*
X10327Y26138D01*
X9131Y25339D01*
X8114Y24322D01*
X7316Y23126D01*
X6765Y21798D01*
X6485Y20388D01*
Y18950D01*
X6765Y17540D01*
X7316Y16211D01*
X8114Y15016D01*
X9131Y13999D01*
X10327Y13201D01*
X11655Y12650D01*
X13065Y12370D01*
X14503D01*
X15913Y12650D01*
X17242Y13201D01*
X18437Y13999D01*
X19454Y15016D01*
X20253Y16211D01*
X20803Y17540D01*
X21083Y18950D01*
Y20388D01*
X20803Y21798D01*
X20253Y23126D01*
X19454Y24322D01*
X18437Y25339D01*
X17242Y26138D01*
X15913Y26688D01*
X14503Y26968D01*
D02*
G37*
%LPD*%
G36*
X231000Y61417D02*
Y20500D01*
X162095Y20500D01*
X174337Y56192D01*
X170500Y118500D01*
X231000Y61417D01*
D02*
G37*
D13*
X287000Y124000D02*
X296500Y133500D01*
X320000D01*
X287000Y123000D02*
Y124000D01*
X158367Y225867D02*
X162453Y229953D01*
X191047D01*
X152867Y225867D02*
X158367D01*
X152500Y225500D02*
X152867Y225867D01*
X237283Y138284D02*
X242500Y143500D01*
Y178500D01*
X191047Y229953D02*
X242500Y178500D01*
X237283Y150500D02*
Y174716D01*
X192047Y219953D02*
X237283Y174716D01*
X159500Y140500D02*
X166500Y147500D01*
X159500Y128500D02*
Y140500D01*
X148000Y161500D02*
X172000Y185500D01*
X148000Y89000D02*
Y161500D01*
X131500Y72500D02*
X148000Y89000D01*
X117500Y204000D02*
X121000Y207500D01*
X117500Y128000D02*
Y204000D01*
X113216Y123716D02*
X117500Y128000D01*
X104831Y123716D02*
X113216D01*
X100284Y119169D02*
X104831Y123716D01*
X193217Y150500D02*
X237283D01*
X237283Y129000D02*
Y138284D01*
X236784Y128500D02*
X237283Y129000D01*
X145500Y94000D02*
Y238500D01*
X130000Y78500D02*
X145500Y94000D01*
Y238500D02*
X152500Y245500D01*
X193217Y128500D02*
X236784D01*
X195500Y180000D02*
X199500Y176000D01*
X174500Y180000D02*
X195500D01*
X199500Y170000D02*
Y176000D01*
X209500Y170000D02*
Y176000D01*
X195547Y189953D02*
X209500Y176000D01*
X156953Y189953D02*
X195547D01*
X171414Y219953D02*
X192047D01*
X195547Y209953D02*
X229500Y176000D01*
X156953Y209953D02*
X195547D01*
X229500Y170000D02*
Y176000D01*
X156953Y199953D02*
X196047D01*
X219500Y170000D02*
Y176500D01*
X196047Y199953D02*
X219500Y176500D01*
X166961Y215500D02*
X171414Y219953D01*
X152500Y215500D02*
X166961D01*
X170000Y175500D02*
X174500Y180000D01*
X172000Y185500D02*
X182500D01*
X152500D02*
X156953Y189953D01*
X152500Y195500D02*
X156953Y199953D01*
X152500Y205500D02*
X156953Y209953D01*
X310000Y246500D02*
X329000D01*
X295047Y231547D02*
X310000Y246500D01*
X261953Y231547D02*
X295047D01*
X152500Y59200D02*
Y84500D01*
X262500Y251000D02*
X332500D01*
X339000Y244500D01*
X257500Y246000D02*
X262500Y251000D01*
X127711Y62212D02*
X136211D01*
X110284Y49169D02*
X114669D01*
X127711Y62212D01*
X136211D02*
X144500Y70500D01*
Y79500D01*
X132469Y39169D02*
X152500Y59200D01*
X123600Y72500D02*
X131500D01*
X130000Y77500D02*
Y78500D01*
X110284Y39169D02*
X132469D01*
X338061Y235439D02*
Y237439D01*
X329000Y246500D02*
X338061Y237439D01*
Y235439D02*
X339000Y234500D01*
X257500Y236000D02*
X261953Y231547D01*
X115800Y64700D02*
X123600Y72500D01*
X107500Y64700D02*
X115800D01*
X105800Y66400D02*
X107500Y64700D01*
X105800Y66400D02*
Y114685D01*
X110284Y119169D01*
D16*
X247716Y150500D02*
D03*
X237283D02*
D03*
X192717D02*
D03*
X182283D02*
D03*
X237283Y129000D02*
D03*
X247716D02*
D03*
X182283Y128500D02*
D03*
X192717D02*
D03*
D27*
X332000Y88500D02*
X339500Y81000D01*
X324500Y125000D02*
X332000Y117500D01*
Y88500D02*
Y117500D01*
X309000Y125000D02*
X324500D01*
X265500Y104992D02*
X288992D01*
X309000Y125000D01*
X264500Y105500D02*
Y115500D01*
X265500Y104992D02*
X266776Y103717D01*
X248500Y173000D02*
X271000Y150500D01*
X276500Y145000D01*
X249000Y150500D02*
X271000D01*
X248500Y173000D02*
Y225000D01*
X229500Y244000D02*
X248500Y225000D01*
X91500Y157953D02*
Y220385D01*
X109015Y237900D01*
X346000Y139000D02*
Y247500D01*
X339000Y254500D02*
X346000Y247500D01*
X339500Y132500D02*
X346000Y139000D01*
X276500Y125992D02*
Y145000D01*
X265500Y114992D02*
X276500Y125992D01*
X152500Y235500D02*
X182500D01*
X128015Y256900D02*
X161100D01*
X182500Y235500D02*
Y245500D01*
X161100Y256900D02*
X182500Y235500D01*
X130000Y147526D02*
X140000Y157526D01*
X120101Y237900D02*
X140000Y218002D01*
Y157526D02*
Y218002D01*
X110284Y229169D02*
X118731D01*
X125400Y222500D02*
Y222500D01*
X118731Y229169D02*
X125400Y222500D01*
X110284Y219169D02*
Y229169D01*
X91500Y157953D02*
X100284Y149169D01*
X130000Y147500D02*
Y147526D01*
X109015Y237900D02*
X120101D01*
X109015D02*
X128015Y256900D01*
X287500Y236000D02*
Y246000D01*
D28*
X165500Y124500D02*
X169500Y128500D01*
X165500Y115000D02*
Y124500D01*
X181000Y128500D02*
X181500Y128000D01*
X169500Y128500D02*
X181000D01*
D29*
X166500Y115000D02*
X179000D01*
X165500D02*
X166500D01*
X235776Y11200D02*
Y58224D01*
X179000Y115000D02*
X235776Y58224D01*
X195776Y11200D02*
Y74724D01*
X165500Y105000D02*
Y115000D01*
X177327Y46152D02*
Y93173D01*
X195776Y74724D01*
X165500Y105000D02*
X177327Y93173D01*
X157745Y26570D02*
X177327Y46152D01*
X157745Y13168D02*
Y26570D01*
X155776Y11200D02*
X157745Y13168D01*
D30*
X67500Y229500D02*
D03*
Y239500D02*
D03*
X209500Y170000D02*
D03*
X219500D02*
D03*
X229500D02*
D03*
X152500Y235500D02*
D03*
Y225500D02*
D03*
Y215500D02*
D03*
Y205500D02*
D03*
Y195500D02*
D03*
Y185500D02*
D03*
Y175500D02*
D03*
X182500Y245500D02*
D03*
Y235500D02*
D03*
Y225500D02*
D03*
Y215500D02*
D03*
Y205500D02*
D03*
Y195500D02*
D03*
Y185500D02*
D03*
Y175500D02*
D03*
X110284Y229169D02*
D03*
X100284Y219169D02*
D03*
X110284D02*
D03*
X100284Y209169D02*
D03*
X110284D02*
D03*
X100284Y199169D02*
D03*
X110284D02*
D03*
X100284Y189169D02*
D03*
X110284D02*
D03*
X100284Y179169D02*
D03*
X110284D02*
D03*
X100284Y169169D02*
D03*
X110284D02*
D03*
X100284Y159169D02*
D03*
X110284D02*
D03*
X100284Y149169D02*
D03*
X110284D02*
D03*
X100284Y139169D02*
D03*
X110284D02*
D03*
X100284Y129169D02*
D03*
X110284D02*
D03*
X100284Y119169D02*
D03*
X110284D02*
D03*
X100284Y109169D02*
D03*
X110284D02*
D03*
X100284Y99169D02*
D03*
X110284D02*
D03*
X100284Y89169D02*
D03*
X110284D02*
D03*
X100284Y79169D02*
D03*
X110284D02*
D03*
X100284Y69169D02*
D03*
X110284D02*
D03*
X100284Y59169D02*
D03*
X110284D02*
D03*
X100284Y49169D02*
D03*
X110284D02*
D03*
X100284Y39169D02*
D03*
X110284D02*
D03*
X287500Y176000D02*
D03*
Y186000D02*
D03*
Y196000D02*
D03*
Y206000D02*
D03*
Y216000D02*
D03*
Y226000D02*
D03*
Y236000D02*
D03*
Y246000D02*
D03*
X257500Y176000D02*
D03*
Y186000D02*
D03*
Y196000D02*
D03*
Y206000D02*
D03*
Y216000D02*
D03*
Y226000D02*
D03*
Y236000D02*
D03*
X339500Y71000D02*
D03*
Y61000D02*
D03*
Y102500D02*
D03*
Y112500D02*
D03*
Y122500D02*
D03*
X339000Y164500D02*
D03*
Y174500D02*
D03*
Y184500D02*
D03*
Y194500D02*
D03*
Y204500D02*
D03*
Y214500D02*
D03*
Y224500D02*
D03*
Y234500D02*
D03*
Y244500D02*
D03*
Y254500D02*
D03*
D31*
X67500Y249500D02*
D03*
X100284Y229169D02*
D03*
X339500Y81000D02*
D03*
Y132500D02*
D03*
X339000Y154500D02*
D03*
D32*
X199500Y170000D02*
D03*
X152500Y245500D02*
D03*
X257500Y246000D02*
D03*
D33*
X265500Y114992D02*
D03*
Y104992D02*
D03*
X165500Y115000D02*
D03*
Y105000D02*
D03*
Y60000D02*
D03*
Y70000D02*
D03*
X265500Y60000D02*
D03*
Y70000D02*
D03*
D34*
X106284Y20169D02*
D03*
X12784Y248169D02*
D03*
X103784D02*
D03*
X13784Y19669D02*
D03*
X350500Y20000D02*
D03*
X150000Y37500D02*
D03*
X260000D02*
D03*
X130000Y242500D02*
D03*
X320000Y237500D02*
D03*
D35*
X254276Y11200D02*
D03*
X214276D02*
D03*
X174276D02*
D03*
X155776D02*
D03*
X195776D02*
D03*
X235776D02*
D03*
D36*
X130000Y97500D02*
D03*
X320000Y133500D02*
D03*
Y47500D02*
D03*
X130000Y117500D02*
D03*
D37*
Y87500D02*
D03*
Y77500D02*
D03*
Y67500D02*
D03*
Y57500D02*
D03*
Y47500D02*
D03*
X320000Y143500D02*
D03*
Y153500D02*
D03*
Y163500D02*
D03*
Y173500D02*
D03*
Y183500D02*
D03*
Y193500D02*
D03*
Y203500D02*
D03*
Y213500D02*
D03*
Y223500D02*
D03*
Y77500D02*
D03*
Y87500D02*
D03*
Y97500D02*
D03*
Y107500D02*
D03*
Y117500D02*
D03*
Y57500D02*
D03*
Y67500D02*
D03*
X130000Y147500D02*
D03*
Y157500D02*
D03*
Y167500D02*
D03*
Y177500D02*
D03*
Y187500D02*
D03*
Y127500D02*
D03*
Y137500D02*
D03*
D38*
X287000Y123000D02*
D03*
X159500Y128500D02*
D03*
X121000Y207500D02*
D03*
X166500Y147500D02*
D03*
X170000Y175500D02*
D03*
X152500Y84500D02*
D03*
X144500Y79500D02*
D03*
X229500Y244000D02*
D03*
X125400Y222500D02*
D03*
M02*
