G04*
G04 #@! TF.GenerationSoftware,Altium Limited,Altium Designer,22.4.2 (48)*
G04*
G04 Layer_Color=16711935*
%FSLAX25Y25*%
%MOIN*%
G70*
G04*
G04 #@! TF.SameCoordinates,BB4B1E32-F115-428D-8FF9-27E3AA0A464A*
G04*
G04*
G04 #@! TF.FilePolarity,Negative*
G04*
G01*
G75*
%ADD18C,0.06706*%
%ADD19R,0.06706X0.06706*%
%ADD20R,0.06706X0.06706*%
%ADD21R,0.10642X0.10642*%
%ADD22C,0.13398*%
%ADD23R,0.16548X0.16548*%
%ADD24R,0.06800X0.06800*%
%ADD25C,0.06800*%
%ADD26C,0.05800*%
D18*
X67500Y229500D02*
D03*
Y239500D02*
D03*
X209500Y170000D02*
D03*
X219500D02*
D03*
X229500D02*
D03*
X152500Y235500D02*
D03*
Y225500D02*
D03*
Y215500D02*
D03*
Y205500D02*
D03*
Y195500D02*
D03*
Y185500D02*
D03*
Y175500D02*
D03*
X182500Y245500D02*
D03*
Y235500D02*
D03*
Y225500D02*
D03*
Y215500D02*
D03*
Y205500D02*
D03*
Y195500D02*
D03*
Y185500D02*
D03*
Y175500D02*
D03*
X110284Y229169D02*
D03*
X100284Y219169D02*
D03*
X110284D02*
D03*
X100284Y209169D02*
D03*
X110284D02*
D03*
X100284Y199169D02*
D03*
X110284D02*
D03*
X100284Y189169D02*
D03*
X110284D02*
D03*
X100284Y179169D02*
D03*
X110284D02*
D03*
X100284Y169169D02*
D03*
X110284D02*
D03*
X100284Y159169D02*
D03*
X110284D02*
D03*
X100284Y149169D02*
D03*
X110284D02*
D03*
X100284Y139169D02*
D03*
X110284D02*
D03*
X100284Y129169D02*
D03*
X110284D02*
D03*
X100284Y119169D02*
D03*
X110284D02*
D03*
X100284Y109169D02*
D03*
X110284D02*
D03*
X100284Y99169D02*
D03*
X110284D02*
D03*
X100284Y89169D02*
D03*
X110284D02*
D03*
X100284Y79169D02*
D03*
X110284D02*
D03*
X100284Y69169D02*
D03*
X110284D02*
D03*
X100284Y59169D02*
D03*
X110284D02*
D03*
X100284Y49169D02*
D03*
X110284D02*
D03*
X100284Y39169D02*
D03*
X110284D02*
D03*
X287500Y176000D02*
D03*
Y186000D02*
D03*
Y196000D02*
D03*
Y206000D02*
D03*
Y216000D02*
D03*
Y226000D02*
D03*
Y236000D02*
D03*
Y246000D02*
D03*
X257500Y176000D02*
D03*
Y186000D02*
D03*
Y196000D02*
D03*
Y206000D02*
D03*
Y216000D02*
D03*
Y226000D02*
D03*
Y236000D02*
D03*
X339500Y71000D02*
D03*
Y61000D02*
D03*
Y102500D02*
D03*
Y112500D02*
D03*
Y122500D02*
D03*
X339000Y164500D02*
D03*
Y174500D02*
D03*
Y184500D02*
D03*
Y194500D02*
D03*
Y204500D02*
D03*
Y214500D02*
D03*
Y224500D02*
D03*
Y234500D02*
D03*
Y244500D02*
D03*
Y254500D02*
D03*
D19*
X67500Y249500D02*
D03*
X100284Y229169D02*
D03*
X339500Y81000D02*
D03*
Y132500D02*
D03*
X339000Y154500D02*
D03*
D20*
X199500Y170000D02*
D03*
X152500Y245500D02*
D03*
X257500Y246000D02*
D03*
D21*
X265500Y114992D02*
D03*
Y104992D02*
D03*
X165500Y115000D02*
D03*
Y105000D02*
D03*
Y60000D02*
D03*
Y70000D02*
D03*
X265500Y60000D02*
D03*
Y70000D02*
D03*
D22*
X106284Y20169D02*
D03*
X12784Y248169D02*
D03*
X103784D02*
D03*
X13784Y19669D02*
D03*
X350500Y20000D02*
D03*
X150000Y37500D02*
D03*
X260000D02*
D03*
X130000Y242500D02*
D03*
X320000Y237500D02*
D03*
D23*
X254276Y11200D02*
D03*
X214276D02*
D03*
X174276D02*
D03*
X155776D02*
D03*
X195776D02*
D03*
X235776D02*
D03*
D24*
X130000Y97500D02*
D03*
X320000Y133500D02*
D03*
Y47500D02*
D03*
X130000Y117500D02*
D03*
D25*
Y87500D02*
D03*
Y77500D02*
D03*
Y67500D02*
D03*
Y57500D02*
D03*
Y47500D02*
D03*
X320000Y143500D02*
D03*
Y153500D02*
D03*
Y163500D02*
D03*
Y173500D02*
D03*
Y183500D02*
D03*
Y193500D02*
D03*
Y203500D02*
D03*
Y213500D02*
D03*
Y223500D02*
D03*
Y77500D02*
D03*
Y87500D02*
D03*
Y97500D02*
D03*
Y107500D02*
D03*
Y117500D02*
D03*
Y57500D02*
D03*
Y67500D02*
D03*
X130000Y147500D02*
D03*
Y157500D02*
D03*
Y167500D02*
D03*
Y177500D02*
D03*
Y187500D02*
D03*
Y127500D02*
D03*
Y137500D02*
D03*
D26*
X287000Y123000D02*
D03*
X159500Y128500D02*
D03*
X121000Y207500D02*
D03*
X166500Y147500D02*
D03*
X170000Y175500D02*
D03*
X152500Y84500D02*
D03*
X144500Y79500D02*
D03*
X229500Y244000D02*
D03*
X125400Y222500D02*
D03*
M02*
